<svg xmlns="http://www.w3.org/2000/svg" xmlns:xlink="http://www.w3.org/1999/xlink" width="19" height="19" viewBox="0 0 19 19">
  <defs>
    <clipPath id="clipPath">
      <rect id="Rectangle_3657" data-name="Rectangle 3657" width="19" height="19" transform="translate(0 -0.359)" fill="#4c8da7"/>
    </clipPath>
  </defs>
  <g id="link-icon" transform="translate(0 0.359)">
    <g id="Group_7678" data-name="Group 7678" clipPath="url(#clipPath)">
      <path id="Path_8148" data-name="Path 8148" d="M136.768,4.994c-.053.253-.094.508-.162.757a5.729,5.729,0,0,1-1.539,2.554q-.923.93-1.85,1.856a.734.734,0,1,1-1.041-1.029c.711-.722,1.44-1.427,2.128-2.169a3.583,3.583,0,0,0,.977-2.125,2.92,2.92,0,0,0-1.291-2.8,3.005,3.005,0,0,0-3.438-.094,4.839,4.839,0,0,0-1,.753c-.916.885-1.811,1.792-2.706,2.7A3.989,3.989,0,0,0,125.7,7.449a3.025,3.025,0,0,0,1.441,3.252.8.8,0,0,1,.445.622.7.7,0,0,1-.337.68.68.68,0,0,1-.757.015,4.51,4.51,0,0,1-2.211-2.954,4.749,4.749,0,0,1,.928-3.99,7.224,7.224,0,0,1,.69-.8c.843-.856,1.7-1.7,2.546-2.55A5.769,5.769,0,0,1,131.3.1a4.578,4.578,0,0,1,5.4,3.612c.021.124.049.247.073.371Z" transform="translate(-118.129 0.001)" fill="#4c8da7"/>
      <path id="Path_8149" data-name="Path 8149" d="M4.078,146.411c-.264-.059-.532-.1-.793-.178a4.575,4.575,0,0,1-3.251-3.811,4.792,4.792,0,0,1,1.147-3.711c.463-.566,1-1.068,1.515-1.6.287-.3.58-.586.873-.877A.732.732,0,1,1,4.6,137.276c-.632.638-1.27,1.269-1.9,1.909a4.234,4.234,0,0,0-1.151,1.987,3.075,3.075,0,0,0,2.65,3.754,3.526,3.526,0,0,0,2.745-.967c.493-.43.943-.908,1.406-1.372.608-.61,1.227-1.21,1.808-1.844a3.554,3.554,0,0,0,.951-2.059,2.981,2.981,0,0,0-1.117-2.7,4.411,4.411,0,0,0-.461-.323.731.731,0,0,1-.249-1.014.723.723,0,0,1,1.017-.23,4.468,4.468,0,0,1,2.284,4.25,4.415,4.415,0,0,1-1.156,2.824c-1.179,1.27-2.408,2.5-3.667,3.685a4.606,4.606,0,0,1-2.71,1.205.213.213,0,0,0-.063.031Z" transform="translate(0 -127.766)" fill="#4c8da7"/>
    </g>
  </g>
</svg>
