<svg id="Group_6942" data-name="Group 6942" xmlns="http://www.w3.org/2000/svg" xmlns:xlink="http://www.w3.org/1999/xlink" width="241.089" height="60.011" viewBox="0 0 241.089 60.011">
  <defs>
    <clipPath id="clipPath">
      <rect id="Rectangle_4107" data-name="Rectangle 4107" width="241.089" height="60.011" fill="none"/>
    </clipPath>
  </defs>
  <g id="Group_6941" data-name="Group 6941" clipPath="url(#clipPath)">
    <path id="Path_8977" data-name="Path 8977" d="M585,246.9a3.42,3.42,0,0,1-2.658-1.128,4.329,4.329,0,0,1-1-2.985,4.218,4.218,0,0,1,1.255-3.227,3.5,3.5,0,0,1,2.468-.949,3.148,3.148,0,0,1,2.3.981l.042.042-.844,1.013a2.085,2.085,0,0,0-1.466-.664,1.86,1.86,0,0,0-1.666.949,3.35,3.35,0,0,0-.453,1.8,2.834,2.834,0,0,0,.939,2.415,1.872,1.872,0,0,0,1.15.369,2.252,2.252,0,0,0,1.645-.781l.844.992A3.212,3.212,0,0,1,585,246.9" transform="translate(-483.476 -198.438)" fill="#4c4a4a"/>
    <path id="Path_8978" data-name="Path 8978" d="M625.05,256.484a1.668,1.668,0,0,1-1.5-.759,1.85,1.85,0,0,1-.3-1.033,1.878,1.878,0,0,1,1.445-1.8,8.49,8.49,0,0,1,2.036-.432q-.063-1.033-1.023-1.044a3.6,3.6,0,0,0-1.666.57l-.57-1.044a4.833,4.833,0,0,1,2.521-.8,2.091,2.091,0,0,1,2.289,2.067,5.456,5.456,0,0,1,.032.6v3.533h-1.287l-.127-.643h-.032a2.844,2.844,0,0,1-1.825.791m.517-1.234a1.74,1.74,0,0,0,1.171-.6v-1.213q-1.9.306-1.962,1.129a.623.623,0,0,0,.664.675.784.784,0,0,0,.127.01" transform="translate(-518.333 -208.025)" fill="#4c4a4a"/>
    <path id="Path_8979" data-name="Path 8979" d="M662.118,249.242q-1.983-.021-1.993-2.268v-2.679h-.844v-1.171l.928-.074.18-1.624h1.329v1.624H663.2v1.245h-1.487v2.679q.021,1.013.823,1.023a1.606,1.606,0,0,0,.591-.137l.264,1.16a4.239,4.239,0,0,1-1.276.221" transform="translate(-548.293 -200.782)" fill="#4c4a4a"/>
    <path id="Path_8980" data-name="Path 8980" d="M689.893,256.484a1.668,1.668,0,0,1-1.5-.759,1.85,1.85,0,0,1-.3-1.033,1.878,1.878,0,0,1,1.445-1.8,8.49,8.49,0,0,1,2.036-.432q-.063-1.033-1.023-1.044a3.6,3.6,0,0,0-1.666.57l-.57-1.044a4.833,4.833,0,0,1,2.521-.8,2.091,2.091,0,0,1,2.289,2.067,5.456,5.456,0,0,1,.032.6v3.533h-1.287l-.127-.643h-.032a2.844,2.844,0,0,1-1.825.791m.517-1.234a1.74,1.74,0,0,0,1.171-.6v-1.213q-1.9.306-1.962,1.129a.623.623,0,0,0,.664.675.784.784,0,0,0,.127.01" transform="translate(-572.26 -208.025)" fill="#4c4a4a"/>
    <path id="Path_8981" data-name="Path 8981" d="M729.309,244.553q-1.477-.021-1.487-1.846v-6.919a1.571,1.571,0,0,1,1.572,1.571v5.421q.042.432.327.475a1.026,1.026,0,0,0,.222-.021l.19,1.181a2.192,2.192,0,0,1-.823.137" transform="translate(-605.295 -196.094)" fill="#4c4a4a"/>
    <path id="Path_8982" data-name="Path 8982" d="M748.651,256.484a2.759,2.759,0,0,1-2.067-.875,3.2,3.2,0,0,1-.844-2.289,3.12,3.12,0,0,1,1.065-2.51,2.782,2.782,0,0,1,1.846-.675,2.711,2.711,0,0,1,2.057.886,3.22,3.22,0,0,1,.844,2.3,3.108,3.108,0,0,1-1.065,2.5,2.767,2.767,0,0,1-1.835.664m0-1.3a1.17,1.17,0,0,0,1.16-.981,3.112,3.112,0,0,0,.116-.886q0-1.361-.738-1.761a1.146,1.146,0,0,0-.538-.127,1.171,1.171,0,0,0-1.16.949,3.187,3.187,0,0,0-.127.939,1.8,1.8,0,0,0,.728,1.73,1.154,1.154,0,0,0,.559.137" transform="translate(-620.196 -208.025)" fill="#4c4a4a"/>
    <path id="Path_8983" data-name="Path 8983" d="M788.305,258.963a2.749,2.749,0,0,1-2.268-.77,1.274,1.274,0,0,1-.264-.791,1.466,1.466,0,0,1,.865-1.245v-.063a1.127,1.127,0,0,1-.548-1.012,1.463,1.463,0,0,1,.665-1.129v-.042a1.911,1.911,0,0,1-.781-1.276,2.28,2.28,0,0,1-.021-.306,1.977,1.977,0,0,1,1-1.814,2.754,2.754,0,0,1,1.445-.38,2.871,2.871,0,0,1,.907.158h2.183v1.16h-1.044a1.458,1.458,0,0,1,.285.918,1.853,1.853,0,0,1-1.044,1.782,2.884,2.884,0,0,1-1.287.274,2.585,2.585,0,0,1-.781-.148.679.679,0,0,0-.253.527q0,.39.538.475a3.538,3.538,0,0,0,.411.021h1.023q2.236.011,2.247,1.508a1.838,1.838,0,0,1-1.023,1.624,4.432,4.432,0,0,1-2.257.527m.232-1a1.774,1.774,0,0,0,1.371-.464.636.636,0,0,0,.169-.411q0-.454-.633-.527a3.069,3.069,0,0,0-.38-.021h-.728a3.551,3.551,0,0,1-.844-.084.94.94,0,0,0-.4.707q0,.548.77.728a2.89,2.89,0,0,0,.675.074m-.137-4.514a.835.835,0,0,0,.833-.559,1.442,1.442,0,0,0,.106-.559,1,1,0,0,0-.58-1.044,1.011,1.011,0,0,0-.359-.063.85.85,0,0,0-.854.57,1.465,1.465,0,0,0-.1.538,1.017,1.017,0,0,0,.559,1.034.949.949,0,0,0,.39.085" transform="translate(-653.491 -208.025)" fill="#4c4a4a"/>
    <path id="Path_8984" data-name="Path 8984" d="M827.916,257.266q-1.846-.021-1.856-2.415v-3.776h1.582v3.576q0,1.023.5,1.2a1.09,1.09,0,0,0,.348.053,1.38,1.38,0,0,0,1.044-.517q.095-.105.19-.232v-4.082H831.3v6.044h-1.287l-.127-.865h-.042a2.651,2.651,0,0,1-1.93,1.013" transform="translate(-686.995 -208.807)" fill="#4c4a4a"/>
    <path id="Path_8985" data-name="Path 8985" d="M868.035,256.484a2.839,2.839,0,0,1-2.268-.981,3.244,3.244,0,0,1-.738-2.183,3.2,3.2,0,0,1,1.012-2.479,2.632,2.632,0,0,1,1.8-.707,2.258,2.258,0,0,1,2.162,1.234,3.552,3.552,0,0,1,.369,1.666,2.623,2.623,0,0,1-.074.717h-3.734a1.564,1.564,0,0,0,1.055,1.424,1.956,1.956,0,0,0,.622.095,2.632,2.632,0,0,0,1.361-.422l.538.97a3.626,3.626,0,0,1-2.109.665m-1.487-3.776h2.468q0-1.171-.907-1.318a1.36,1.36,0,0,0-.242-.021,1.207,1.207,0,0,0-1.108.664,2,2,0,0,0-.211.675" transform="translate(-719.403 -208.025)" fill="#4c4a4a"/>
    <path id="Path_8986" data-name="Path 8986" d="M919.689,256.484a2.76,2.76,0,0,1-2.067-.875,3.2,3.2,0,0,1-.844-2.289,3.12,3.12,0,0,1,1.065-2.51,2.781,2.781,0,0,1,1.846-.675,2.711,2.711,0,0,1,2.057.886,3.22,3.22,0,0,1,.844,2.3,3.108,3.108,0,0,1-1.065,2.5,2.767,2.767,0,0,1-1.835.664m0-1.3a1.17,1.17,0,0,0,1.16-.981,3.109,3.109,0,0,0,.116-.886q0-1.361-.738-1.761a1.146,1.146,0,0,0-.538-.127,1.171,1.171,0,0,0-1.16.949,3.189,3.189,0,0,0-.127.939,1.8,1.8,0,0,0,.728,1.73,1.154,1.154,0,0,0,.559.137" transform="translate(-762.441 -208.025)" fill="#4c4a4a"/>
    <path id="Path_8987" data-name="Path 8987" d="M960.059,235.121l-.3,1.171a1.877,1.877,0,0,0-.633-.137q-.728.021-.738.949v.527h1.139v1.245h-1.139v4.8H956.8v-4.8H956v-1.171l.8-.063v-.506a1.946,1.946,0,0,1,1.234-2.088,2.631,2.631,0,0,1,.875-.137,3.176,3.176,0,0,1,1.15.211" transform="translate(-795.058 -195.363)" fill="#4c4a4a"/>
    <path id="Path_8988" data-name="Path 8988" d="M998.287,247.48v-7.995a1.6,1.6,0,0,1,1.6,1.6v5.052h1.9a1.34,1.34,0,0,1,1.34,1.34Z" transform="translate(-830.228 -199.168)" fill="#4c4a4a"/>
    <path id="Path_8989" data-name="Path 8989" d="M1034.5,257.118v-6.044l.786.763.786-.763v4.472a1.571,1.571,0,0,1-1.572,1.572" transform="translate(-860.344 -208.807)" fill="#4c4a4a"/>
    <path id="Path_8990" data-name="Path 8990" d="M1054.849,235.121l-.3,1.171a1.877,1.877,0,0,0-.633-.137q-.728.021-.738.949v.527h1.139v1.245h-1.139v4.8h-1.593v-4.8h-.8v-1.171l.8-.063v-.506a1.946,1.946,0,0,1,1.234-2.088,2.632,2.632,0,0,1,.875-.137,3.176,3.176,0,0,1,1.15.211" transform="translate(-873.891 -195.363)" fill="#4c4a4a"/>
    <path id="Path_8991" data-name="Path 8991" d="M1078.543,256.484a2.84,2.84,0,0,1-2.268-.981,3.245,3.245,0,0,1-.738-2.183,3.2,3.2,0,0,1,1.012-2.479,2.632,2.632,0,0,1,1.8-.707,2.258,2.258,0,0,1,2.162,1.234,3.553,3.553,0,0,1,.369,1.666,2.628,2.628,0,0,1-.074.717h-3.734a1.564,1.564,0,0,0,1.055,1.424,1.956,1.956,0,0,0,.622.095,2.632,2.632,0,0,0,1.361-.422l.538.97a3.626,3.626,0,0,1-2.109.665m-1.487-3.776h2.468q0-1.171-.907-1.318a1.36,1.36,0,0,0-.242-.021,1.207,1.207,0,0,0-1.108.664,2,2,0,0,0-.211.675" transform="translate(-894.473 -208.025)" fill="#4c4a4a"/>
    <path id="Path_8992" data-name="Path 8992" d="M1129.613,236.756a.871.871,0,0,1-.844-.464.813.813,0,0,1-.106-.4.768.768,0,0,1,.517-.77,1.1,1.1,0,0,1,.432-.084.881.881,0,0,1,.854.464.906.906,0,0,1,.084.39.785.785,0,0,1-.485.759,1,1,0,0,1-.453.106m-.8.981h1.572v6.044h-1.572Z" transform="translate(-938.656 -195.469)" fill="#4c4a4a"/>
    <path id="Path_8993" data-name="Path 8993" d="M1149.026,256.337v-6.044h1.3l.105.791h.042a2.924,2.924,0,0,1,1.962-.949q1.867.021,1.877,2.436v3.765h-1.593v-3.576q0-1.044-.527-1.223a1.19,1.19,0,0,0-.327-.042,1.57,1.57,0,0,0-1.034.475l-.232.211v4.156Z" transform="translate(-955.59 -208.025)" fill="#4c4a4a"/>
    <path id="Path_8994" data-name="Path 8994" d="M1203.775,247.48v-6.666h-2.247v-1.329h6.107v1.329h-2.268v6.666Z" transform="translate(-999.254 -199.168)" fill="#4c4a4a"/>
    <path id="Path_8995" data-name="Path 8995" d="M1244.733,256.484a1.668,1.668,0,0,1-1.5-.759,1.85,1.85,0,0,1-.3-1.033,1.878,1.878,0,0,1,1.445-1.8,8.489,8.489,0,0,1,2.036-.432q-.063-1.033-1.023-1.044a3.6,3.6,0,0,0-1.666.57l-.57-1.044a4.832,4.832,0,0,1,2.521-.8,2.091,2.091,0,0,1,2.289,2.067,5.441,5.441,0,0,1,.032.6v3.533h-1.287l-.127-.643h-.032a2.844,2.844,0,0,1-1.825.791m.517-1.234a1.74,1.74,0,0,0,1.171-.6v-1.213q-1.9.306-1.962,1.129a.623.623,0,0,0,.665.675.782.782,0,0,0,.126.01" transform="translate(-1033.694 -208.025)" fill="#4c4a4a"/>
    <path id="Path_8996" data-name="Path 8996" d="M1282.733,236.756a.871.871,0,0,1-.844-.464.812.812,0,0,1-.106-.4.768.768,0,0,1,.517-.77,1.1,1.1,0,0,1,.432-.084.881.881,0,0,1,.854.464.906.906,0,0,1,.084.39.786.786,0,0,1-.485.759,1,1,0,0,1-.453.106m-.8.981h1.572v6.044h-1.572Z" transform="translate(-1065.999 -195.469)" fill="#4c4a4a"/>
    <path id="Path_8997" data-name="Path 8997" d="M1300.387,257.118l-1.561-6.044h1.582l.664,2.985q.063.338.169,1.023.084.5.127.738h.042q.243-1.223.38-1.761l.728-2.985h1.413l.759,2.985q.032.127.38,1.761h.053q.042-.242.127-.738.105-.686.169-1.023l.665-2.985h1.466l-1.487,6.044h-1.867l-.643-2.637q-.148-.654-.348-1.761h-.053q-.306,1.677-.327,1.761l-.622,2.637Z" transform="translate(-1080.172 -208.807)" fill="#4c4a4a"/>
    <path id="Path_8998" data-name="Path 8998" d="M1357.443,256.484a1.668,1.668,0,0,1-1.5-.759,1.85,1.85,0,0,1-.3-1.033,1.878,1.878,0,0,1,1.445-1.8,8.488,8.488,0,0,1,2.036-.432q-.063-1.033-1.023-1.044a3.6,3.6,0,0,0-1.666.57l-.57-1.044a4.832,4.832,0,0,1,2.521-.8,2.091,2.091,0,0,1,2.289,2.067,5.441,5.441,0,0,1,.032.6v3.533h-1.287l-.127-.643h-.032a2.844,2.844,0,0,1-1.825.791m.517-1.234a1.74,1.74,0,0,0,1.171-.6v-1.213q-1.9.306-1.962,1.129a.623.623,0,0,0,.664.675.784.784,0,0,0,.127.01" transform="translate(-1127.429 -208.025)" fill="#4c4a4a"/>
    <path id="Path_8999" data-name="Path 8999" d="M1395.371,256.337v-6.044h1.3l.105.791h.042a2.924,2.924,0,0,1,1.962-.949q1.867.021,1.877,2.436v3.765h-1.593v-3.576q0-1.044-.527-1.223a1.188,1.188,0,0,0-.327-.042,1.571,1.571,0,0,0-1.034.475l-.232.211v4.156Z" transform="translate(-1160.464 -208.025)" fill="#4c4a4a"/>
    <path id="Path_9000" data-name="Path 9000" d="M594.052,78.747h7.691a1.786,1.786,0,0,1,1.786,1.786h-9.477v.786h7.477v1.691h-17.62V81.319h7.238v-.786h-9.215a1.786,1.786,0,0,1,1.786-1.786h7.429V77.533h2.9Zm0,18.31v.786h7.381a1.952,1.952,0,0,1,1.952,1.952H582.123a1.952,1.952,0,0,1,1.952-1.952h7.072v-.786h-6.667V95.343h6.667V94.6q-1.048,0-3.048.024-2.953.048-4.191.048l-.119-1.714q1.071.024,3.6.024.429-.595.572-.833h-3.214v-.381h-2.524V88.1h21v3.667h-2.714V89.914H584.79v.714h15.62v1.524h-1.738a22.178,22.178,0,0,1,3,1.929l-1.524,1.262H601.2v1.714ZM584.79,83.724h16V87.39h-16Zm13.144,1.4H587.457v.857h10.477Zm-2.857,7.024H591.1l-.714.857q3.786,0,5.762-.024-.6-.333-1.31-.667Zm-1.024,2.4v.786h5.762q-.548-.429-1.191-.857h-.762l-.024.024h-1.5l-.024.024h-1.5l-.024.024Z" transform="translate(-483.966 -64.48)" fill="#4c4a4a"/>
    <path id="Path_9001" data-name="Path 9001" d="M727.31,86.04,725.6,88.254a14.437,14.437,0,0,0-3.4-2.452l-.1-.048,1.572-2.024a14.634,14.634,0,0,1,3.643,2.309m.452-6.238L726,81.992a14.748,14.748,0,0,0-3.357-2.643.07.07,0,0,0-.048-.024l1.667-1.976a14.976,14.976,0,0,1,3.5,2.453M725.214,99.54l-2.572-1.453q1.185-2.582,2.16-5.274a2.133,2.133,0,0,1,3.15-1.083q-1.357,4.453-2.738,7.81m4.429-10.191V85.992a14.26,14.26,0,0,1-1.191,3.119,10.81,10.81,0,0,0-1.548-.762,9.58,9.58,0,0,0,1.119-3.143l1.619.357v-.953q-.667.071-2.214.167l-.19-1.738,1.476-.047q.571-.714.69-.857a13.555,13.555,0,0,0-1.929-1.738l.9-1.4c.047.032.111.072.19.119a2.177,2.177,0,0,0,.191.119,18.813,18.813,0,0,0,1.1-2.262l1.643.809q-.357.548-1.024,1.643-.357.524-.5.762.071.072.238.214a1.675,1.675,0,0,1,.286.262q.143-.214.4-.6.452-.69.619-1l1.453.809v-.4h5.833v.4l.643-.833.31.238q.833-1.595,1.119-2.238l1.667.786q-.238.334-.69,1.048-.643,1-.953,1.4a4.128,4.128,0,0,1,.524.524q1.024-1.429,1.238-1.833l1.6.881q-1.739,2.143-2.6,3.072L743,82.9q-.238-.523-.357-.762l1.381-.572a11.484,11.484,0,0,1,1.119,2.881l-1.452.643q-.024-.19-.119-.6l-.952.072v4.786h-1.857V85.992a14.193,14.193,0,0,1-1.119,3.048,7.224,7.224,0,0,0-1.31-.714v.81h-4.667V85.468h4.667v2.4a12.344,12.344,0,0,0,.833-2.667l1.6.357v-.9l-2.1.119-.167-1.738,1.143-.024q.095-.095.286-.309a4.833,4.833,0,0,1,.357-.429,10.034,10.034,0,0,0-1.476-1.572v.286h-5.833v-.881q-1.405,1.81-2.238,2.762l1.048-.024q-.143-.429-.214-.619l1.214-.452a10.016,10.016,0,0,1,.857,2.81l-1.31.5q-.071-.523-.1-.667l-.762.071v4.857Zm2.238,5.214h12.191q0,.024-.143,1.048-.548,2.786-1.476,3.548a4.3,4.3,0,0,1-2.286.643q-1.167.023-3.762-.048a4.7,4.7,0,0,0-.786-2.119q1.69.166,3.691.166a1.893,1.893,0,0,0,1.024-.19,2.744,2.744,0,0,0,.691-1.262h-9.6q-.143.477-.214.691l-2.619-.333a34.5,34.5,0,0,0,1.191-4.548h10.405V91.4H729.048V89.754h13.834V93.8h-10.81Zm1.714-6.715-1.452.429a22.087,22.087,0,0,0-.6-2.667l1.381-.309a21.3,21.3,0,0,1,.667,2.548m4.738-4.929h-4.643V81.611h4.643Zm-4.643.572h4.643V84.8h-4.643Zm4.4-4.643h-4.238V77.468h2.857a1.381,1.381,0,0,1,1.381,1.381m-1.524,7.905h-1.214v1.071h1.214Zm6.119-1.119,1.452-.429a22.879,22.879,0,0,1,1.072,3.072l-1.5.5a17.471,17.471,0,0,0-1.024-3.143" transform="translate(-600.532 -64.011)" fill="#4c4a4a"/>
    <path id="Path_9002" data-name="Path 9002" d="M875.436,88.271l.381,2.572-1.429.429q-.786.262-1.19.381v8.667a2.667,2.667,0,0,1-2.667-2.667V92.437q-.453.143-1.357.4-1.6.477-2.31.667l-.691-2.738q1.166-.262,4.357-1.119V84.985h-1.643a22.3,22.3,0,0,1-.9,3.119,15.418,15.418,0,0,0-2.048-1.333,23.256,23.256,0,0,0,1.176-5.473,2.274,2.274,0,0,1,2.634-1.979q-.143,1.405-.357,2.905h1.143V77.556H873.2v4.667h2.024v2.762H873.2v3.929Zm4.333-6.976h7.859A1.262,1.262,0,0,1,888.89,82.6v.026q-.5,12.048-1.286,14.834a3.8,3.8,0,0,1-.548,1.238,2.914,2.914,0,0,1-1.691,1.214c-.079.015-.151.031-.214.047a15.455,15.455,0,0,1-2.738.072A7.616,7.616,0,0,0,881.6,97.2a21.488,21.488,0,0,0,2.167.1,1.2,1.2,0,0,0,.9-.453q.857-1.071,1.333-10.786.047-1,.1-2.072h-.119a32.878,32.878,0,0,1-5.048,12.929,14.8,14.8,0,0,1-2.572,2.81,9.071,9.071,0,0,0-2.381-1.691q4.429-3.19,6.762-10.858.452-1.547.809-3.191h-1.143a27.846,27.846,0,0,1-3.9,8.715,15.754,15.754,0,0,1-1.69,1.976,9.044,9.044,0,0,0-2.214-1.643,16.466,16.466,0,0,0,4.738-7.191q.357-.929.643-1.857h-1.238a18.1,18.1,0,0,1-2.5,4.357,13.171,13.171,0,0,0-2.214-1.619q2.738-3.024,4-9.191l2.643.476q-.262,1.214-.9,3.286" transform="translate(-720.158 -64.48)" fill="#4c4a4a"/>
    <path id="Path_9003" data-name="Path 9003" d="M1028.666,98.522h3.429a2.31,2.31,0,0,1,2.31,2.31h-14.739v-2.31h6.214v-1.1h-4.857V95.236h4.857V94.117h-4.691V91.974l-1.6,2.191a17.748,17.748,0,0,0-1.476-2.452v9.5a2.81,2.81,0,0,1-2.81-2.81V92.45a20.954,20.954,0,0,1-2.643,4.834,12.677,12.677,0,0,0-1.333-2.762,22.561,22.561,0,0,0,3.6-6.524h-3.1V85.283h3.476v-2.81q-1.762.334-2.952.476a8.7,8.7,0,0,0-.81-2.214,31.884,31.884,0,0,0,7.548-2.024l1.929,2.214a28.6,28.6,0,0,1-2.9.929v3.429h2.619V88h-2.619v.714a30.815,30.815,0,0,1,2.833,2.881q.143.167.238.262v-5.9h4.691v-1h-5.5V82.712h5.5V81.688q-2.381.1-4.619.143l0-.019a2.056,2.056,0,0,1,1.935-2.246,64.886,64.886,0,0,0,8.995-.9l1.667,2.167a47.03,47.03,0,0,1-5.191.667v1.214h5.238V84.95h-5.238v1h4.834v8.167h-4.834v1.119h4.834v2.191h-4.834Zm-4.952-9.357h2.167V87.974h-2.167Zm0,2.952h2.167V90.879h-2.167Zm7.191-4.143h-2.238v1.191h2.238Zm0,2.905h-2.238v1.238h2.238Z" transform="translate(-841.077 -65.421)" fill="#4c4a4a"/>
    <path id="Path_9004" data-name="Path 9004" d="M1177.3,99.307h-3V98.235h-9.143v1.071a2.905,2.905,0,0,1-2.905-2.905V91.759q-.9.31-1.8.548t-1.821.476q-.1-.286-.262-.655T1158,91.39q-.2-.369-.417-.714a4.126,4.126,0,0,0-.429-.583,37.01,37.01,0,0,0,4.381-1.167,31.192,31.192,0,0,0,4.1-1.691q-.786-.762-1.8-1.643t-2.012-1.643q-.524.334-1.071.655a11.045,11.045,0,0,1-1.143.583q-.167-.262-.4-.583t-.512-.643q-.274-.321-.548-.607a4.09,4.09,0,0,0-.536-.476,20.031,20.031,0,0,0,5.012-3.024,16.066,16.066,0,0,0,3.131-3.453l3.262.691q-.333.477-.667.917t-.714.917h7.119l.5-.143,2,1.191a18.257,18.257,0,0,1-3.3,4.726,24.391,24.391,0,0,1-4.536,3.679h7.881Zm-12.215-17.739q-.262.191-.476.369t-.453.369q.524.381,1.1.81t1.119.881q.547.453,1.048.881t.9.81a22.085,22.085,0,0,0,2.5-1.929,16.588,16.588,0,0,0,2.048-2.191Zm9.215,9.453h-9.143v4.6h9.143Z" transform="translate(-962.348 -63.539)" fill="#4c4a4a"/>
    <path id="Path_9005" data-name="Path 9005" d="M1312.475,93.7,1311,92.913a8.788,8.788,0,0,0,4.405,4.1,7.533,7.533,0,0,0-1.667,2.143,1.1,1.1,0,0,0-.071.119,9.777,9.777,0,0,1-3.929-3.9v2.286a2.676,2.676,0,0,1-.643,2.119,1.5,1.5,0,0,1-.285.19,7.187,7.187,0,0,1-3.024.453,8.91,8.91,0,0,0-.786-2.453q.667.024,1.643.024a.356.356,0,0,0,.333-.357V95.961q-1.905,1.381-4.548,3.167l-.643-1.024q-4,.881-8.691,1.786l-.032-.154a2.422,2.422,0,0,1,1.986-2.884l1.093-.176V90.318h-3.333V87.889h3.333V86.1h-2.167v-1.1l-.214.214q-.167.143-.238.214A6.643,6.643,0,0,0,1292,83.723a1.277,1.277,0,0,0-.214-.143,15.1,15.1,0,0,0,4.214-5.9h2.4a22.806,22.806,0,0,1,3.929,3.929c.063.08.119.151.167.214l-1.571,1.881h.048v2.4h-2.333v1.786h3.024v2.429h-3.024v5.929q.5-.095,1.548-.286,1.023-.214,1.524-.31l.072.857q1.737-1,4.524-2.738l.667,1.714v-6.5h-5V86.651h7.524q.047-.286.214-1.548h-4.024l-.167.786-2.762-.238q.748-2.864,1.3-6.035a2.19,2.19,0,0,1,2.33-1.806l.7.056-.238,1.4h3.857l.453-.119,2.048.214q-.191,1.905-.952,7.286h.333a2.333,2.333,0,0,1,2.333,2.333h-5.191v.738a14.578,14.578,0,0,0,1.072,2.833,19.077,19.077,0,0,0,1.857-3.119l2.286,1.119q-1.881,2.477-2.476,3.143m-19.405-1.976,1.833-.476a26.6,26.6,0,0,1,.857,4.191l-1.953.548a19.87,19.87,0,0,0-.738-4.262m2.167-8.024h5.167a21.44,21.44,0,0,0-2.81-3.357,25.159,25.159,0,0,1-2.357,3.357m5.429,11.786-1.762-.476a24.452,24.452,0,0,0,.857-3.952l2.1.5q-.191.571-.524,1.762-.453,1.6-.667,2.167m1.381-4.857L1304,89.485a11.492,11.492,0,0,1,2.309,3.048.191.191,0,0,1,.024.072l-2.1,1.333a11.533,11.533,0,0,0-2.19-3.31m4.1-7.667H1310l.191-1.572h-3.715Z" transform="translate(-1074.315 -64.599)" fill="#4c4a4a"/>
    <rect id="Rectangle_4105" data-name="Rectangle 4105" width="2.367" height="2.367" transform="translate(173.268 40.134) rotate(-45)" fill="#cb720d"/>
    <path id="Path_9006" data-name="Path 9006" d="M65.067,209.446a25.409,25.409,0,0,1-25.53.591c-9.006-4.68-13.624-12.054-14.218-22.215-.021-.354-.02-1.865-.015-2.212.012-.9.258-1.4,1.178-1.427,1.031-.031.9,1.411.9,2.195a23.427,23.427,0,0,0,2,10.006c4.226,8.933,11.406,13.831,21.185,14.323,9.491.478,16.916-3.6,22.067-11.655.254-.4.449-.836.713-1.226.438-.645.978-1.415,1.858-.957.812.422.4,1.413.059,2.038-2.171,4.037-5.214,7.284-10.2,10.539" transform="translate(-21.041 -153.176)" fill="#474645"/>
    <path id="Path_9007" data-name="Path 9007" d="M6.342,141.808H4.262v-9.5H0a2.08,2.08,0,0,1,2.08-2.08H8.523a2.08,2.08,0,0,1,2.08,2.08H6.342Z" transform="translate(0 -108.307)" fill="#474645"/>
    <path id="Path_9008" data-name="Path 9008" d="M56.416,177.566a3.1,3.1,0,0,1-1.938-.651,3.764,3.764,0,0,1,0-5.664,3.127,3.127,0,0,1,1.938-.676l4.16.014c.087-1.828-1.312-1.882-2.6-1.882l-4.616.012-.017-.35c0-1.274.961-1.678,2.067-1.678H58a4.236,4.236,0,0,1,3.223,1.228,5.1,5.1,0,0,1,1.132,3.459v6.189Zm4.181-5.01H56.319c-.828,0-1.123.725-1.123,1.527s.352,1.475,1.179,1.475h2.4c1.142,0,1.924-.487,1.821-2.687Z" transform="translate(-44.238 -138.628)" fill="#474645"/>
    <path id="Path_9009" data-name="Path 9009" d="M118.9,174.587h0V163.313l1.008,1,1.008-1v9.258a2.016,2.016,0,0,1-2.016,2.016" transform="translate(-98.882 -135.82)" fill="#474645"/>
    <path id="Path_9010" data-name="Path 9010" d="M150.948,172.826a2.016,2.016,0,0,1-2.016,2.016h-2.215c-3.517,0-5.3-1.891-5.3-5.62s1.783-5.6,5.3-5.6h2.215a2.016,2.016,0,0,1,2.016,2.016h-4.231a3.608,3.608,0,1,0,0,7.19Z" transform="translate(-117.61 -136.075)" fill="#474645"/>
    <path id="Path_9011" data-name="Path 9011" d="M208.306,173.511a4.894,4.894,0,0,1-3.815-1.768,5.91,5.91,0,0,1-1.573-4.191,5.974,5.974,0,0,1,1.575-4.192,4.929,4.929,0,0,1,3.813-1.748,4.982,4.982,0,0,1,3.813,1.748,6.119,6.119,0,0,1,1.576,4.192,6.058,6.058,0,0,1-1.575,4.192,4.945,4.945,0,0,1-3.813,1.766m.018-9.882a3.132,3.132,0,0,0-2.4,1.137,4.1,4.1,0,0,0-1.006,2.805,4,4,0,0,0,1.006,2.787,3.087,3.087,0,0,0,2.4,1.137,3.037,3.037,0,0,0,2.363-1.134,4.072,4.072,0,0,0,1.009-2.791,4.167,4.167,0,0,0-1.009-2.808,3.081,3.081,0,0,0-2.363-1.134" transform="translate(-168.757 -134.406)" fill="#474645"/>
    <path id="Path_9012" data-name="Path 9012" d="M284.116,174.842h-4.338a4.356,4.356,0,0,1-3.4-1.143,4.412,4.412,0,0,1-.952-3.106V163.62a2,2,0,0,1,2,2v4.8a2.8,2.8,0,0,0,.457,1.811,2.431,2.431,0,0,0,1.9.6H282.1A2.016,2.016,0,0,1,284.116,174.842Z" transform="translate(-229.055 -136.075)" fill="#474645"/>
    <rect id="Rectangle_4106" data-name="Rectangle 4106" width="3.649" height="3.649" transform="translate(18.444 24.28) rotate(-45)" fill="#cb720d"/>
    <path id="Path_9013" data-name="Path 9013" d="M188.486,42.4c2.527.029,5.015.085,7.149.143-22.487-44.368-54.234-20.9-60.03-16.066a1.191,1.191,0,0,0-.024.871c5.273-4.221,32.634-23.382,52.9,15.052" transform="translate(-112.698 -13.271)" fill="#f8c030"/>
    <path id="Path_9014" data-name="Path 9014" d="M196.1,29.268c3.623.1,6.22.207,6.22.207s-6.373-17.043-17.507-23.454c-22.973-13.227-40.008-1.766-48.46,6.767a1.338,1.338,0,0,0-.282.414c5.8-4.83,37.543-28.3,60.03,16.066" transform="translate(-113.165 0)" fill="#b3c151"/>
    <path id="Path_9015" data-name="Path 9015" d="M210.035,90.105c-.14-2.5-1.816-4.636-4.5-4.571-7.683.186-16.09-.145-23.768.154a4.043,4.043,0,0,0-4.074,3.025,2.561,2.561,0,0,0,.265,2.269c.518.678.1-2.54,2.434-3.183a2.962,2.962,0,0,1,2.928.979,3.261,3.261,0,0,1,.67,3.136c-.783,2.922-3.944,3.6-6.3,1.642a5.467,5.467,0,0,1-1.4-6.754,6.941,6.941,0,0,1,2.512-2.725,3.836,3.836,0,0,1,1.283-.366c-13.256-27.595-34.291-16.947-38.244-14.622a1.257,1.257,0,0,0,.766-.124,20.558,20.558,0,0,1,15.845-1.494c17.983,6,15.316,23.38,16.172,24.99,1.69,3.178,4.18,4.3,7.636,4.138,5.712-.262,21.756-.094,23.412-.252,3.8-.362,4.513-3.325,4.35-6.244" transform="translate(-117.972 -54.166)" fill="#377690"/>
    <path id="Path_9016" data-name="Path 9016" d="M176.57,72.012a54.821,54.821,0,0,1,6.785-.414C166.163,39.408,142.119,53.888,137.612,57a1.241,1.241,0,0,0,.714.386c3.953-2.325,24.988-12.973,38.244,14.622" transform="translate(-114.445 -42.465)" fill="#62a89f"/>
    <path id="Path_9017" data-name="Path 9017" d="M181.958,56.639c2.155-.038,4.53-.035,6.879-.007C168.566,18.2,141.2,37.359,135.932,41.579a1.327,1.327,0,0,0,.283.466c4.507-3.116,28.551-17.6,45.743,14.594" transform="translate(-113.048 -27.506)" fill="#dc6c5c"/>
  </g>
</svg>
