<?xml version="1.0" standalone="no"?>
<!DOCTYPE svg PUBLIC "-//W3C//DTD SVG 20010904//EN"
 "http://www.w3.org/TR/2001/REC-SVG-20010904/DTD/svg10.dtd">
<svg version="1.0" xmlns="http://www.w3.org/2000/svg"
 width="283.000000pt" height="255.000000pt" viewBox="0 0 283.000000 255.000000"
 preserveAspectRatio="xMidYMid meet">

<g transform="translate(0.000000,255.000000) scale(0.100000,-0.100000)"
fill="#000000" stroke="none">
<path d="M1095 1778 c-44 -4 -100 -14 -125 -21 -43 -13 -42 -14 52 -9 113 5
195 -8 288 -47 117 -50 213 -123 289 -221 61 -80 115 -237 126 -368 12 -137
16 -152 47 -188 17 -19 49 -44 70 -55 37 -19 57 -20 451 -17 375 3 415 5 440
21 40 26 58 59 64 120 4 44 1 64 -15 99 -39 79 -31 78 -449 78 -202 0 -386 -5
-407 -10 -53 -12 -86 -47 -93 -100 -4 -31 -3 -41 5 -36 7 4 12 15 12 25 0 49
89 79 137 46 32 -23 47 -77 33 -120 -17 -51 -53 -75 -111 -75 -40 0 -55 6 -83
30 -80 71 -82 184 -5 261 22 22 46 39 54 39 8 0 15 4 15 8 0 19 -116 202 -168
266 -60 73 -157 156 -232 199 -107 61 -251 88 -395 75z"/>
<path d="M70 1453 c-17 -6 -40 -32 -40 -45 0 -4 29 -8 65 -8 l65 0 0 -184 c0
-326 53 -485 215 -651 158 -160 365 -248 585 -247 183 1 335 56 487 176 151
120 273 306 200 306 -17 0 -34 -18 -72 -76 -162 -248 -425 -370 -715 -334
-239 30 -424 152 -546 360 -77 131 -86 173 -91 428 l-5 222 61 0 c46 0 61 3
61 14 0 34 -41 46 -150 45 -58 0 -112 -3 -120 -6z"/>
<path d="M1165 1286 c-49 -21 -93 -79 -101 -132 -13 -90 40 -184 117 -204 150
-41 262 166 156 287 -52 59 -111 76 -172 49z m98 -57 c35 -16 57 -60 57 -114
0 -40 -5 -52 -34 -81 -24 -24 -43 -34 -66 -34 -23 0 -41 10 -66 34 -30 30 -34
40 -34 86 0 46 4 56 34 86 36 36 67 42 109 23z"/>
<path d="M843 1279 c-66 -19 -100 -91 -91 -190 9 -95 60 -133 176 -134 61 0
76 3 88 19 8 11 14 23 14 28 0 4 -35 8 -77 8 -43 0 -89 6 -103 13 -54 27 -63
148 -13 187 21 16 41 20 109 20 88 0 98 6 64 40 -16 16 -33 20 -77 19 -32 0
-72 -5 -90 -10z"/>
<path d="M1430 1167 c0 -69 4 -137 10 -151 16 -43 52 -58 150 -64 77 -4 90 -3
90 11 0 32 -29 47 -94 47 -95 0 -100 7 -106 141 -5 102 -7 113 -27 127 l-23
14 0 -125z"/>
<path d="M630 1120 c0 -152 1 -160 20 -160 33 0 40 33 40 181 0 121 -2 140
-14 130 -10 -8 -16 -9 -21 -1 -19 31 -25 -3 -25 -150z"/>
<path d="M322 1258 c-29 -29 -13 -38 66 -38 86 0 125 -15 130 -48 3 -21 1 -22
-81 -22 -84 0 -86 -1 -112 -32 -23 -27 -26 -39 -22 -77 4 -33 12 -52 32 -68
24 -21 36 -23 131 -23 l104 0 0 110 c0 127 -13 171 -59 194 -37 19 -171 22
-189 4z m198 -192 c0 -43 -29 -66 -83 -66 -56 0 -77 14 -77 55 0 40 6 43 93
44 l67 1 0 -34z"/>
</g>
</svg>
