<svg id="ssicon02" xmlns="http://www.w3.org/2000/svg" xmlns:xlink="http://www.w3.org/1999/xlink" width="70" height="57.119" viewBox="0 0 70 57.119">
  <defs>
    <clipPath id="clipPath">
      <rect id="Rectangle_1859" data-name="Rectangle 1859" width="70" height="57.119" fill="#4c8da7"/>
    </clipPath>
  </defs>
  <g id="Group_6889" data-name="Group 6889" clipPath="url(#clipPath)">
    <path id="Path_8922" data-name="Path 8922" d="M67.722,107.838a.659.659,0,0,0-.533-.165l-.166.011c-.713.048-1.451.1-2.174.184A13.846,13.846,0,0,0,60.631,109a6.19,6.19,0,0,0-3.848,6.812,3.4,3.4,0,0,0,.172.643,1.593,1.593,0,0,1,.128.956,6.233,6.233,0,0,1-.457,1.047c-.087.17-.173.34-.252.513-.029.064-.056.128-.081.191l-.223-.295c-.352-.466-.716-.949-1.09-1.41a.724.724,0,0,1-.208-.512,4.549,4.549,0,0,0-4.066-4.786,12.438,12.438,0,0,0-4.828.342.585.585,0,0,0-.386.277.67.67,0,0,0-.042.542c.071.225.159.463.285.771a11.5,11.5,0,0,0,2.686,4.241,3.85,3.85,0,0,0,5.218.34c.138-.1.273-.2.409-.3l.061-.047a9.487,9.487,0,0,1,1.6,2.457.276.276,0,0,1,.031.131c-.1.521-.2,1.042-.3,1.576l-.067.346h-8.55a.873.873,0,0,0-.976.954q-.005,1.108,0,2.216a.863.863,0,0,0,.922.939c.208.005.762,0,.762,0l.172.948c.133.734.264,1.457.394,2.18l.429,2.385q.454,2.526.91,5.051c.108.6.257.718.881.718H61.257c.5,0,.669-.135.766-.619.055-.275.1-.551.154-.827l.465-2.578q.593-3.286,1.182-6.573l.006-.033a1.375,1.375,0,0,1,.164-.586,1.438,1.438,0,0,1,.623-.065h.065a.867.867,0,0,0,.956-.969c0-.707,0-1.414,0-2.121s-.32-1.02-1.034-1.021H56.647a13.852,13.852,0,0,1,1.437-4.635l.292.114c.314.123.61.24.921.332a5.791,5.791,0,0,0,3.416.134,5.473,5.473,0,0,0,3.14-2.664,17.444,17.444,0,0,0,2.031-7.771.619.619,0,0,0-.162-.5M53.3,115.947c-.373-.244-.726-.474-1.1-.69a10.892,10.892,0,0,0-1.093-.529l-.1-.045a.656.656,0,0,0-.518-.024.619.619,0,0,0-.335.35.593.593,0,0,0,.378.8,9.859,9.859,0,0,1,2.588,1.556l.078.068a2.674,2.674,0,0,1-3.764.152,8.986,8.986,0,0,1-2.191-3.129c-.112-.239-.215-.482-.324-.74l-.069-.164a8.91,8.91,0,0,1,4.348-.02,3.073,3.073,0,0,1,2.25,2.509l-.145-.094m7.584,21.035H50.6l-1.8-10H62.692Zm3.5-11.3H47.1v-1.609h17.29ZM66.592,109c-.016.2-.031.388-.053.578a16.46,16.46,0,0,1-1.258,4.958,8.523,8.523,0,0,1-.9,1.548,3.766,3.766,0,0,1-4.352,1.483c-.336-.092-.669-.215-1.022-.346l-.311-.115.205-.289c.239-.337.465-.655.7-.962a14.257,14.257,0,0,1,2.312-2.3.9.9,0,0,0,.332-.618.541.541,0,0,0-.325-.507.666.666,0,0,0-.719.139c-.708.654-1.542,1.435-2.36,2.274a7.669,7.669,0,0,0-.7.873l-.081.112a5.552,5.552,0,0,1-.084-1.583,4.922,4.922,0,0,1,3.2-4.144,13.358,13.358,0,0,1,4.366-1.081c.27-.028.541-.052.829-.077l.225-.02c0,.025,0,.049-.006.074" transform="translate(-36.303 -88.444)" fill="#4c8da7"/>
    <path id="Path_8923" data-name="Path 8923" d="M240.824,133.22H222.546a2.946,2.946,0,1,1,0-5.893h18.278a2.946,2.946,0,1,1,0,5.893m-18.278-4.464a1.518,1.518,0,1,0,0,3.036h18.278a1.518,1.518,0,1,0,0-3.036Z" transform="translate(-180.386 -104.59)" fill="#4c8da7"/>
    <path id="Path_8924" data-name="Path 8924" d="M240.824,187.038H222.546a2.946,2.946,0,1,1,0-5.893h18.278a2.946,2.946,0,1,1,0,5.893m-18.278-4.464a1.518,1.518,0,1,0,0,3.036h18.278a1.518,1.518,0,0,0,0-3.036Z" transform="translate(-180.386 -148.798)" fill="#4c8da7"/>
    <path id="Path_8925" data-name="Path 8925" d="M240.824,241.025H222.546a2.946,2.946,0,1,1,0-5.893h18.278a2.946,2.946,0,1,1,0,5.893m-18.278-4.464a1.518,1.518,0,1,0,0,3.036h18.278a1.518,1.518,0,0,0,0-3.036Z" transform="translate(-180.386 -193.144)" fill="#4c8da7"/>
    <path id="Path_8926" data-name="Path 8926" d="M63.882,6.838H42.972v-4.7A2.145,2.145,0,0,0,40.829,0H30.178a2.145,2.145,0,0,0-2.143,2.143v4.7H6.117A6.124,6.124,0,0,0,0,12.955V51a6.124,6.124,0,0,0,6.117,6.118H63.882A6.124,6.124,0,0,0,70,51V12.955a6.124,6.124,0,0,0-6.118-6.117M29.464,8.267V2.143a.715.715,0,0,1,.714-.714H40.829a.715.715,0,0,1,.714.714V9.559A2.678,2.678,0,0,1,40.7,11.32l-4.521,3.606a1.177,1.177,0,0,1-1.343,0l-4.52-3.606a2.678,2.678,0,0,1-.848-1.761ZM68.571,51a4.694,4.694,0,0,1-4.689,4.689H6.117A4.694,4.694,0,0,1,1.429,51V12.955A4.694,4.694,0,0,1,6.117,8.267H28.035V9.559a4.044,4.044,0,0,0,1.386,2.878l4.52,3.606a2.59,2.59,0,0,0,3.124,0l4.521-3.606a4.043,4.043,0,0,0,1.386-2.878V8.267H63.882a4.694,4.694,0,0,1,4.689,4.689Z" fill="#4c8da7"/>
  </g>
</svg>
