<svg id="Group_6895" data-name="Group 6895" xmlns="http://www.w3.org/2000/svg" xmlns:xlink="http://www.w3.org/1999/xlink" width="62.238" height="59.119" viewBox="0 0 62.238 59.119">
  <defs>
    <clipPath id="clipPath">
      <rect id="Rectangle_1869" data-name="Rectangle 1869" width="62.238" height="59.119" fill="#4c8da7"/>
    </clipPath>
  </defs>
  <g id="Group_6891" data-name="Group 6891" clipPath="url(#clipPath)">
    <path id="Path_8931" data-name="Path 8931" d="M13.832,64.116H3.494A3.5,3.5,0,0,1,0,60.622V9.492A3.5,3.5,0,0,1,3.494,6H13.832a3.5,3.5,0,0,1,3.494,3.494v51.13a3.5,3.5,0,0,1-3.494,3.494M3.494,7.334A2.161,2.161,0,0,0,1.336,9.492v51.13A2.161,2.161,0,0,0,3.494,62.78H13.832a2.161,2.161,0,0,0,2.158-2.158V9.492a2.161,2.161,0,0,0-2.158-2.158Z" transform="translate(0 -4.997)" fill="#4c8da7"/>
    <path id="Path_8932" data-name="Path 8932" d="M32.609,39.564h-8a.668.668,0,1,1,0-1.336h8a.668.668,0,0,1,0,1.336" transform="translate(-19.948 -31.846)" fill="#4c8da7"/>
    <path id="Path_8933" data-name="Path 8933" d="M32.609,62.675h-8a.668.668,0,1,1,0-1.336h8a.668.668,0,0,1,0,1.336" transform="translate(-19.948 -51.099)" fill="#4c8da7"/>
    <path id="Path_8934" data-name="Path 8934" d="M32.609,292.452h-8a.668.668,0,0,1,0-1.336h8a.668.668,0,0,1,0,1.336" transform="translate(-19.948 -242.517)" fill="#4c8da7"/>
    <path id="Path_8935" data-name="Path 8935" d="M32.609,315.564h-8a.668.668,0,0,1,0-1.336h8a.668.668,0,0,1,0,1.336" transform="translate(-19.948 -261.771)" fill="#4c8da7"/>
    <path id="Path_8936" data-name="Path 8936" d="M109.616,64.116H99.278a3.5,3.5,0,0,1-3.494-3.494V9.492A3.5,3.5,0,0,1,99.278,6h10.338a3.5,3.5,0,0,1,3.494,3.494v51.13a3.5,3.5,0,0,1-3.494,3.494M99.278,7.334A2.161,2.161,0,0,0,97.12,9.492v51.13a2.161,2.161,0,0,0,2.159,2.158h10.338a2.161,2.161,0,0,0,2.158-2.158V9.492a2.161,2.161,0,0,0-2.158-2.158Z" transform="translate(-79.794 -4.997)" fill="#4c8da7"/>
    <path id="Path_8937" data-name="Path 8937" d="M128.393,39.564h-8a.668.668,0,1,1,0-1.336h8a.668.668,0,1,1,0,1.336" transform="translate(-99.742 -31.846)" fill="#4c8da7"/>
    <path id="Path_8938" data-name="Path 8938" d="M128.393,62.675h-8a.668.668,0,1,1,0-1.336h8a.668.668,0,1,1,0,1.336" transform="translate(-99.742 -51.099)" fill="#4c8da7"/>
    <path id="Path_8939" data-name="Path 8939" d="M128.393,292.452h-8a.668.668,0,0,1,0-1.336h8a.668.668,0,1,1,0,1.336" transform="translate(-99.742 -242.517)" fill="#4c8da7"/>
    <path id="Path_8940" data-name="Path 8940" d="M128.393,315.564h-8a.668.668,0,0,1,0-1.336h8a.668.668,0,1,1,0,1.336" transform="translate(-99.742 -261.771)" fill="#4c8da7"/>
    <path id="Path_8941" data-name="Path 8941" d="M208.352,59.049a3.5,3.5,0,0,1-3.375-2.587L191.691,7.089a3.5,3.5,0,0,1,2.466-4.282L204.14.121a3.5,3.5,0,0,1,4.282,2.466l13.286,49.374a3.5,3.5,0,0,1-2.466,4.282l-9.983,2.686a3.5,3.5,0,0,1-.907.12m-2.085-2.934a2.161,2.161,0,0,0,2.645,1.523l9.983-2.686a2.161,2.161,0,0,0,1.523-2.645L207.132,2.934a2.161,2.161,0,0,0-2.645-1.523L194.5,4.1a2.161,2.161,0,0,0-1.523,2.645Z" transform="translate(-159.59 0)" fill="#4c8da7"/>
    <path id="Path_8942" data-name="Path 8942" d="M219.921,36.943a.668.668,0,0,1-.173-1.313l7.72-2.077a.668.668,0,0,1,.347,1.29l-7.72,2.078a.673.673,0,0,1-.174.023" transform="translate(-182.651 -27.932)" fill="#4c8da7"/>
    <path id="Path_8943" data-name="Path 8943" d="M225.926,59.26a.668.668,0,0,1-.173-1.313l7.721-2.077a.668.668,0,0,1,.347,1.29L226.1,59.237a.673.673,0,0,1-.174.023" transform="translate(-187.654 -46.524)" fill="#4c8da7"/>
    <path id="Path_8944" data-name="Path 8944" d="M285.631,281.145a.668.668,0,0,1-.173-1.313l7.72-2.077a.668.668,0,0,1,.347,1.29l-7.72,2.078a.673.673,0,0,1-.174.023" transform="translate(-237.392 -231.368)" fill="#4c8da7"/>
    <path id="Path_8945" data-name="Path 8945" d="M291.636,303.463a.668.668,0,0,1-.173-1.313l7.721-2.077a.668.668,0,0,1,.347,1.29l-7.721,2.078a.674.674,0,0,1-.174.023" transform="translate(-242.394 -249.96)" fill="#4c8da7"/>
  </g>
</svg>
