<svg id="statistic-icon08" xmlns="http://www.w3.org/2000/svg" xmlns:xlink="http://www.w3.org/1999/xlink" width="36" height="35.404" viewBox="0 0 36 35.404">
  <defs>
    <clipPath id="clip-path">
      <rect id="Rectangle_5307" data-name="Rectangle 5307" width="36" height="35.404" fill="#4c8da7"/>
    </clipPath>
  </defs>
  <g id="Group_8933" data-name="Group 8933" clip-path="url(#clip-path)">
    <path id="Path_9100" data-name="Path 9100" d="M0,221.129a1.578,1.578,0,0,1,1.049-.721c.439-.112.863-.285,1.3-.4a.93.93,0,0,1,1.127.586.92.92,0,0,1-.52,1.19,17.424,17.424,0,0,1-1.792.588c-.544.144-.9-.177-1.165-.61Z" transform="translate(0 -199.35)" fill="#4c8da7"/>
    <path id="Path_9101" data-name="Path 9101" d="M349.795,221.771c-.5.681-.739.758-1.569.491-.422-.136-.845-.267-1.263-.415a.951.951,0,1,1,.557-1.818,11.721,11.721,0,0,1,1.622.547c.26.119.438.417.652.634Z" transform="translate(-313.795 -199.361)" fill="#4c8da7"/>
    <path id="Path_9102" data-name="Path 9102" d="M37.985,0a2.355,2.355,0,0,1,2.2,1.4c1.125,2.269,2.252,4.538,3.364,6.814a.855.855,0,0,0,.738.532q3.837.532,7.667,1.113a2.373,2.373,0,0,1,1.525,3.74,3.545,3.545,0,0,1-.375.417q-2.715,2.648-5.436,5.289a.746.746,0,0,0-.253.742c.447,2.539.876,5.081,1.308,7.622a2.262,2.262,0,0,1-.88,2.3,2.21,2.21,0,0,1-2.473.272c-1.174-.579-2.324-1.205-3.484-1.813s-2.3-1.2-3.443-1.815a.818.818,0,0,0-.854,0q-3.377,1.789-6.766,3.552a2.391,2.391,0,0,1-3.467-1.374,3.974,3.974,0,0,1,.078-1.9q.592-3.484,1.2-6.966a.674.674,0,0,0-.294-.63q-2.744-2.669-5.485-5.339a2.284,2.284,0,0,1-.666-2.4,2.225,2.225,0,0,1,1.806-1.67c1-.192,2.011-.3,3.017-.447,1.643-.237,3.287-.46,4.925-.727a.88.88,0,0,0,.51-.457c1.142-2.273,2.264-4.557,3.39-6.838A2.352,2.352,0,0,1,37.985,0m8.861,28.062c-.009-.046-.022-.1-.032-.161-.415-2.426-.8-4.857-1.256-7.276a2.812,2.812,0,0,1,.859-2.789c1.793-1.7,3.546-3.439,5.319-5.158.186-.181.382-.386.238-.63a.809.809,0,0,0-.522-.316c-2.369-.362-4.736-.739-7.114-1.034a3.02,3.02,0,0,1-2.621-1.843C40.693,6.655,39.579,4.5,38.5,2.32,38.4,2.1,38.264,1.859,38,1.93a.922.922,0,0,0-.471.4,10.983,10.983,0,0,0-.5,1q-1.443,2.92-2.884,5.841A2.421,2.421,0,0,1,32.3,10.591c-.852.145-1.711.251-2.568.375-1.77.257-3.54.509-5.308.782a.544.544,0,0,0-.379.3.951.951,0,0,0,.117.506c.026.07.111.118.169.175q2.706,2.633,5.413,5.264a2.426,2.426,0,0,1,.792,2.082c-.034.324-.106.644-.161.966q-.582,3.4-1.166,6.795c-.041.239-.079.471.153.635s.462.057.686-.061c2.214-1.163,4.437-2.311,6.643-3.49a2.6,2.6,0,0,1,2.633,0c2.174,1.162,4.363,2.3,6.547,3.442a2.089,2.089,0,0,0,.382.174.457.457,0,0,0,.59-.469" transform="translate(-20.009 -0.001)" fill="#4c8da7"/>
    <path id="Path_9103" data-name="Path 9103" d="M183.543,341.076c0,.268.012.537,0,.8a.963.963,0,1,1-1.925-.005c-.018-.536-.017-1.073,0-1.608a.964.964,0,1,1,1.927.005c.011.268,0,.536,0,.8" transform="translate(-164.577 -307.46)" fill="#4c8da7"/>
    <path id="Path_9104" data-name="Path 9104" d="M70.344,11.385a2.8,2.8,0,0,1,.67.44,16.166,16.166,0,0,1,1.059,1.435.929.929,0,0,1-.233,1.3.918.918,0,0,1-1.307-.2c-.364-.47-.711-.954-1.049-1.444a.882.882,0,0,1-.029-.992,1.141,1.141,0,0,1,.889-.546" transform="translate(-62.818 -10.318)" fill="#4c8da7"/>
    <path id="Path_9105" data-name="Path 9105" d="M284.39,15.451A1,1,0,0,1,283.505,14a14.093,14.093,0,0,1,1.17-1.611.9.9,0,0,1,1.238-.117.922.922,0,0,1,.27,1.216,16.948,16.948,0,0,1-1.154,1.581,2.208,2.208,0,0,1-.639.377" transform="translate(-256.816 -10.954)" fill="#4c8da7"/>
  </g>
</svg>
