<svg id="statistic-icon03" xmlns="http://www.w3.org/2000/svg" xmlns:xlink="http://www.w3.org/1999/xlink" width="36" height="32.063" viewBox="0 0 36 32.063">
  <defs>
    <clipPath id="clip-path">
      <rect id="Rectangle_5291" data-name="Rectangle 5291" width="36" height="32.063" fill="#4c8da7"/>
    </clipPath>
  </defs>
  <g id="Group_8913" data-name="Group 8913" clip-path="url(#clip-path)">
    <path id="Path_9083" data-name="Path 9083" d="M33.887,24.773c-.261-.145-.546-.247-.816-.367,0-.019-.009-.034,0-.041.046-.067.093-.134.141-.2a3.888,3.888,0,0,0,.773-2.216A3.812,3.812,0,0,0,30.481,18c-1.413-.08-2.834-.036-4.251-.048h-.407c-.009-.1-.017-.147-.017-.192q0-4.693,0-9.386c0-.431.165-.6.595-.6,1.172-.006,2.344,0,3.515,0a3.975,3.975,0,0,0,4.014-3.03c.019-.063.046-.124.071-.191.407,0,.793.006,1.179,0,.5-.009.82-.291.819-.721s-.313-.709-.82-.721c-.328-.008-.657.015-.984-.011a.4.4,0,0,1-.294-.2A3.908,3.908,0,0,0,29.867,0C28.379,0,26.89-.008,25.4.01A10.775,10.775,0,0,0,23.8.144a7.01,7.01,0,0,0-5.722,6.711c-.013,3.55,0,7.1-.005,10.651v.448h-.454c-2.32,0-4.64.013-6.96-.006a4.458,4.458,0,0,0-2.84.821c-.012.009-.042-.008-.079-.015v-.382c0-2.05,0-4.1,0-6.152a1.464,1.464,0,0,0-1.479-1.465A6.212,6.212,0,0,0,.282,15.126c-.113.365-.189.741-.282,1.112v9.071a.643.643,0,0,1,.066.155,7.542,7.542,0,0,0,7.277,6.568c3.514.059,7.03.016,10.545.013h0c2.653,0,11.662.023,14.207-.007a3.873,3.873,0,0,0,1.791-7.265m-5.639-5.359a2.572,2.572,0,0,1-4.958,0Zm-7.7-15.636a5.373,5.373,0,0,1,4.358-2.319c1.745-.036,3.49-.029,5.235-.007A2.437,2.437,0,0,1,32.605,3.9a2.5,2.5,0,0,1-2.53,2.433c-1.195.006-2.39.024-3.584,0a2.011,2.011,0,0,0-2.107,2.1c.043,3.021.014,6.044.014,9.066v.436H19.5v-3.9a4.1,4.1,0,0,0,2.653-1.779,3.821,3.821,0,0,0,.66-2.289,4.087,4.087,0,0,0-3.222-3.9,4.874,4.874,0,0,1,.957-2.279M19.494,7.547a2.544,2.544,0,0,1,1.89,2.628,2.515,2.515,0,0,1-1.89,2.344Zm-9.4,11.85c.551-.01,1.1,0,1.652,0H21.774a4.069,4.069,0,0,0,8,.028,2.439,2.439,0,0,1,.9,4.79,3.242,3.242,0,0,1-.766.066q-9.755.005-19.51,0a2.447,2.447,0,1,1-.307-4.883m-8.668-2.2A2.507,2.507,0,0,1,3.317,19.71a2.471,2.471,0,0,1-1.894,2.424Zm3.4,12.73a6.178,6.178,0,0,1-3.386-6.264A4.08,4.08,0,0,0,4.752,19.8c.124-1.781-.961-3.2-3.157-4.119a4.68,4.68,0,0,1,2.726-3.1,10.354,10.354,0,0,1,1.62-.411c.311-.074.4.055.4.369-.011,2.9.013,5.808-.017,8.712A4.393,4.393,0,0,0,7.3,24.4,3.925,3.925,0,0,0,4.82,29.924M10,30.585A2.551,2.551,0,0,1,12.435,28.7a2.585,2.585,0,0,1,2.525,1.883Zm21.963.021c-1.23.017-2.461,0-3.691,0-1.265,0-8.868-.006-10.365,0h0c-.363-.013-.727-.02-1.089,0-.273.017-.367-.08-.446-.345a3.882,3.882,0,0,0-3.079-2.9A3.791,3.791,0,0,0,9.3,28.851,11.863,11.863,0,0,0,8.363,30.6a2.413,2.413,0,0,1-2.4-3.179,2.443,2.443,0,0,1,2.508-1.7q11.688,0,23.376,0c.129,0,.258,0,.387.007a2.45,2.45,0,0,1,2.228,2.24,2.421,2.421,0,0,1-2.5,2.64" transform="translate(0 0)" fill="#4c8da7"/>
    <path id="Path_9084" data-name="Path 9084" d="M297.849,27.3a.726.726,0,0,0,.72-.708.7.7,0,0,0-.706-.712.689.689,0,0,0-.7.716.715.715,0,0,0,.684.7" transform="translate(-269.25 -23.451)" fill="#4c8da7"/>
  </g>
</svg>
