<svg id="statistic-icon04" xmlns="http://www.w3.org/2000/svg" xmlns:xlink="http://www.w3.org/1999/xlink" width="32.33" height="36" viewBox="0 0 32.33 36">
  <defs>
    <clipPath id="clip-path">
      <rect id="Rectangle_5294" data-name="Rectangle 5294" width="32.33" height="36" fill="#4c8da7"/>
    </clipPath>
  </defs>
  <g id="Group_8917" data-name="Group 8917" clip-path="url(#clip-path)">
    <path id="Path_9086" data-name="Path 9086" d="M17.295,0c.574.091,1.151.169,1.722.275a16.932,16.932,0,0,1,7.431,3.442,17.009,17.009,0,0,1,4.84,5.757A8.569,8.569,0,0,1,32.33,13.5a4.023,4.023,0,0,1-2.081,3.585,9.165,9.165,0,0,1-3.484,1.1c-.8.114-1.6.181-2.411.271.108.28.235.554.319.839a1.533,1.533,0,0,1-.9,2c-1,.417-2.026.77-3.05,1.121-.48.164-.476.133-.454.657a32.176,32.176,0,0,0,1.075,6.7,5.184,5.184,0,0,1,.063,2.836,4.292,4.292,0,0,1-2.6,2.854,6.726,6.726,0,0,1-5.161.042,4.441,4.441,0,0,1-2.714-5.451c.335-1.491.651-2.988.905-4.494.153-.908.167-1.839.254-2.758.02-.213-.077-.266-.258-.327-1.016-.343-2.045-.659-3.032-1.072a1.724,1.724,0,0,1-.961-2.628c.044-.094.09-.187.16-.33-.443-.038-.854-.07-1.264-.11a13.113,13.113,0,0,1-3.851-.849A4.2,4.2,0,0,1,.041,14a6.884,6.884,0,0,1,.407-3.1A14.306,14.306,0,0,1,3.336,6.13a.685.685,0,0,1,1-.121.721.721,0,0,1,.083,1.033c-.04.056-.082.11-.119.16A3.3,3.3,0,1,0,9.578,3.341a.3.3,0,0,0-.414-.094.693.693,0,0,1-.979-.31.707.707,0,0,1,.379-.964A16.117,16.117,0,0,1,14.746.066,1.234,1.234,0,0,0,14.976,0Zm3.09,17.1a4.11,4.11,0,0,1,.8-3.254,4.024,4.024,0,0,1,2.929-1.6,3.894,3.894,0,0,1,2.653.717,4.107,4.107,0,0,1,1.8,3.317,2.924,2.924,0,0,0,2.349-3.158,9.219,9.219,0,0,0-1.567-4.186,4.783,4.783,0,0,1-6.17.346,4.685,4.685,0,0,1-1.691-2.476,4.8,4.8,0,0,1,.7-4.075c-.6-.222-1.161-.419-1.712-.638a.372.372,0,0,0-.535.173,4.1,4.1,0,0,1-6.191.718,11.777,11.777,0,0,1-.976-1.169l-2.038.667a4.768,4.768,0,0,1,1.188,3.591,4.607,4.607,0,0,1-1.764,3.272,4.538,4.538,0,0,1-3.125,1.036A4.786,4.786,0,0,1,3.346,8.4,9.694,9.694,0,0,0,1.431,13.08,2.718,2.718,0,0,0,2.9,15.915,6.306,6.306,0,0,0,4,16.378a18.753,18.753,0,0,0,5.408.688c3.149.044,6.3.027,9.448.035.5,0,1,0,1.533,0m-6.869,5.718c-.01.118-.015.2-.023.278-.081.908-.1,1.827-.257,2.722-.28,1.608-.632,3.2-.972,4.8a2.915,2.915,0,0,0,1.488,3.356A5.085,5.085,0,0,0,18.6,33.97a2.8,2.8,0,0,0,1.529-2.218,5.364,5.364,0,0,0-.271-2.033,33.743,33.743,0,0,1-.891-5.03c-.049-.615-.1-1.23-.155-1.871a17.811,17.811,0,0,1-5.3,0m2.666-4.309q-3.124,0-6.247,0a.423.423,0,0,0-.306.1,10.5,10.5,0,0,0-.584.953.309.309,0,0,0,.182.479c.3.128.593.276.9.4a16.358,16.358,0,0,0,8.463.979A16.186,16.186,0,0,0,23.03,20.1c.31-.141.38-.315.223-.593a7.44,7.44,0,0,0-.495-.8.522.522,0,0,0-.365-.182c-2.071-.011-4.141-.008-6.212-.009M23.495,3.436a3.28,3.28,0,0,0,4.979,4.271,17.435,17.435,0,0,0-4.979-4.271m-.156,13.648.005.031c1.171-.128,2.341-.263,3.514-.377.237-.023.285-.12.282-.331a2.6,2.6,0,0,0-1.44-2.427,2.542,2.542,0,0,0-2.837.2,2.633,2.633,0,0,0-1.076,2.644c.027.211.127.266.326.26.409-.013.818,0,1.227,0M18.609,1.631a12.685,12.685,0,0,0-4.2-.084,2.63,2.63,0,0,0,4.2.084" transform="translate(0)" fill="#4c8da7"/>
    <path id="Path_9087" data-name="Path 9087" d="M58.493,39.793a.715.715,0,0,1,.716-.7.725.725,0,0,1,.686.74.7.7,0,0,1-.7.68.7.7,0,0,1-.7-.716" transform="translate(-53.002 -35.419)" fill="#4c8da7"/>
    <path id="Path_9088" data-name="Path 9088" d="M141.182,68.878a3.512,3.512,0,1,1-3.511,3.523,3.522,3.522,0,0,1,3.511-3.523m-.008,1.4a2.107,2.107,0,1,0,2.108,2.1,2.111,2.111,0,0,0-2.108-2.1" transform="translate(-124.748 -62.413)" fill="#4c8da7"/>
    <path id="Path_9089" data-name="Path 9089" d="M83.751,122.883a2.117,2.117,0,0,1-2.133,2.105,2.122,2.122,0,0,1,.033-4.243,2.118,2.118,0,0,1,2.1,2.138m-2.1-.7a.681.681,0,1,0,.681.687.672.672,0,0,0-.681-.687" transform="translate(-72.061 -109.412)" fill="#4c8da7"/>
  </g>
</svg>
