<svg id="statistic-icon01" xmlns="http://www.w3.org/2000/svg" xmlns:xlink="http://www.w3.org/1999/xlink" width="36.127" height="37" viewBox="0 0 36.127 37">
  <defs>
    <clipPath id="clipPath">
      <rect id="Rectangle_5287" data-name="Rectangle 5287" width="36.127" height="37" fill="#4c8da7"/>
    </clipPath>
  </defs>
  <g id="Group_8906" data-name="Group 8906" clipPath="url(#clipPath)">
    <path id="Path_9077" data-name="Path 9077" d="M4.838,37c-.728-.5-.682-1.089.119-1.492.665-.334,1.329-.674,2-.993a.408.408,0,0,0,.271-.435c-.011-1.746,0-3.492-.012-5.237a1.2,1.2,0,0,1,.39-.925c.774-.759,1.541-1.524,2.294-2.3a.871.871,0,0,0,.206-.494c.083-.885.142-1.773.207-2.659.008-.1,0-.209,0-.345-.658,0-1.306-.01-1.954.01-.107,0-.225.119-.314.207-1.238,1.231-2.477,2.461-3.7,3.7a1.279,1.279,0,0,1-1.022.422c-.83-.027-1.662-.005-2.492-.009-.5,0-.822-.277-.83-.706-.008-.445.314-.733.837-.735C1.559,25,2.282,25.02,3,25a.8.8,0,0,0,.493-.206q1.881-1.848,3.734-3.724a1.207,1.207,0,0,1,.956-.4c.746.024,1.493.013,2.24,0a.377.377,0,0,0,.292-.159c.351-.89.682-1.789,1.034-2.725a3.815,3.815,0,0,1-.771-.011,1.6,1.6,0,0,1-.764-.315c-.908-.862-1.78-1.762-2.668-2.644a1.05,1.05,0,0,1-.331-.8c.013-1.18.014-2.36,0-3.54A.9.9,0,0,0,7,9.94c-.291-.336-.627-.633-.934-.954A.735.735,0,1,1,7.093,7.949c.433.418.876.83,1.268,1.285a1.264,1.264,0,0,1,.294.734c.03,1.2.006,2.408.022,3.612a.744.744,0,0,0,.193.463q1.028,1.065,2.094,2.095a.886.886,0,0,0,.464.194,1.875,1.875,0,0,0,2.123-.851c.074-.126.234-.2.332-.28a7.663,7.663,0,0,1-.655-.891,1.912,1.912,0,0,1,.663-2.517,20.33,20.33,0,0,1,1.985-1.1,10.6,10.6,0,0,0-1.5-6.838A9,9,0,0,0,12.305,1.66c-.155-.115-.312-.227-.455-.355a.712.712,0,0,1-.153-1A.7.7,0,0,1,12.719.157,13.749,13.749,0,0,1,14.3,1.466,10.238,10.238,0,0,1,17.34,8.943c0,.506,0,1.011.006,1.517a.311.311,0,0,0,.032.082h1.408c0-.5.008-1.017,0-1.529a10.238,10.238,0,0,1,.432-3.165A10.353,10.353,0,0,1,23.344.19a.732.732,0,0,1,1.086.12.713.713,0,0,1-.212,1.04,10.077,10.077,0,0,0-2.156,2.063A8.52,8.52,0,0,0,20.3,8.1c-.048.9-.008,1.8-.008,2.639a16.744,16.744,0,0,1,1.8.943,2.006,2.006,0,0,1,.253,3.338.887.887,0,0,0-.087.106c.329.363.646.724.978,1.069a.891.891,0,0,0,.305.14c.021.008.048,0,.072,0a2.22,2.22,0,0,0,2.306-.926c.389-.5.9-.9,1.335-1.369a.757.757,0,0,0,.193-.463q.024-1.77,0-3.54a1.106,1.106,0,0,1,.351-.868c.424-.41.827-.842,1.256-1.247a.731.731,0,1,1,1.023,1.037c-.291.3-.583.611-.9.892a.821.821,0,0,0-.293.687c.018,1.144,0,2.288.013,3.431a1.118,1.118,0,0,1-.358.865q-1.3,1.282-2.58,2.58a1.073,1.073,0,0,1-.9.366c-.238-.019-.479,0-.718,0l1.154,2.892c.739,0,1.533.024,2.325-.009a1.409,1.409,0,0,1,1.143.482q1.808,1.845,3.655,3.65a.8.8,0,0,0,.494.2c.722.022,1.445.007,2.167.01.52,0,.844.294.834.738-.01.428-.328.7-.833.7-.855,0-1.71-.012-2.565.007a1.145,1.145,0,0,1-.9-.373c-1.059-1.07-2.161-2.1-3.177-3.207a1.98,1.98,0,0,0-1.87-.769,7.248,7.248,0,0,1-1,.008c.057.487.126.935.158,1.386.04.552.038,1.107.08,1.658a.743.743,0,0,0,.181.433c.773.794,1.557,1.576,2.346,2.353a1.124,1.124,0,0,1,.362.864c-.012,1.746,0,3.492-.013,5.237a.46.46,0,0,0,.307.486c.672.321,1.333.664,2,.994.3.15.566.328.586.708a.805.805,0,0,1-.5.765h-.434c-.953-.482-1.9-.971-2.859-1.442a.876.876,0,0,1-.542-.883c.013-1.817.007-3.635,0-5.452,0-.115.005-.269-.061-.338-.486-.507-.99-1-1.513-1.516a2.889,2.889,0,0,0-.08.292,14.7,14.7,0,0,1-1.551,4.807,8.605,8.605,0,0,1-3.459,3.772A15.519,15.519,0,0,1,18.713,37h-1.3a.32.32,0,0,0-.092-.05A6.568,6.568,0,0,1,13.337,34.6a13.048,13.048,0,0,1-2.784-5.744c-.113-.481-.2-.968-.307-1.507-.489.489-.941.921-1.365,1.379a.806.806,0,0,0-.205.493c-.014,1.805-.019,3.611,0,5.417a.919.919,0,0,1-.578.935c-.948.461-1.884.947-2.824,1.423Zm13.946-1.483a11.492,11.492,0,0,0,1.173-.47,7.357,7.357,0,0,0,3.114-3.5,14.952,14.952,0,0,0,.958-10.5c-.08-.311-.207-.386-.508-.383-1.445.015-2.89.007-4.335.007h-.4c0,.264.006.48,0,.695a.72.72,0,1,1-1.439.009c-.008-.225,0-.45,0-.7-1.688,0-3.335,0-4.982.01-.074,0-.192.132-.214.22a20.013,20.013,0,0,0-.43,1.968,15.271,15.271,0,0,0,.64,7.012,9.791,9.791,0,0,0,2.876,4.543,4.319,4.319,0,0,0,2.109,1.03v-.432q0-3.793,0-7.586a2.374,2.374,0,0,1,.01-.361.687.687,0,0,1,.547-.6.64.64,0,0,1,.767.33,1.237,1.237,0,0,1,.115.551q.011,3.847,0,7.694Zm4.572-16.307a8.4,8.4,0,0,0-2.332-3.167.48.48,0,0,0-.377-.08,8.933,8.933,0,0,1-5.187-.008.37.37,0,0,0-.29.03,8.347,8.347,0,0,0-2.4,3.224Zm-5.269-4.318a5.9,5.9,0,0,0,2.9-.688,1.4,1.4,0,0,0,.643-.753c.076-.381-.32-.639-.648-.771a9.134,9.134,0,0,0-1.768-.565,6.472,6.472,0,0,0-3.675.367c-.462.191-1.048.4-1.042.968s.592.766,1.05.968a6.826,6.826,0,0,0,2.542.475" transform="translate(0 0)" fill="#4c8da7"/>
    <path id="Path_9078" data-name="Path 9078" d="M240.329,326.993a.719.719,0,1,1,.722-.7.72.72,0,0,1-.722.7" transform="translate(-222.268 -301.99)" fill="#4c8da7"/>
  </g>
</svg>
