<svg id="statistic-icon07" xmlns="http://www.w3.org/2000/svg" xmlns:xlink="http://www.w3.org/1999/xlink" width="42.095" height="35.565" viewBox="0 0 42.095 35.565">
  <defs>
    <clipPath id="clipPath">
      <rect id="Rectangle_5306" data-name="Rectangle 5306" width="42.095" height="35.565" fill="#4c8da7"/>
    </clipPath>
  </defs>
  <g id="Group_8931" data-name="Group 8931" clipPath="url(#clipPath)">
    <path id="Path_9098" data-name="Path 9098" d="M0,32.747a7.569,7.569,0,0,1,.689-1.137,2.276,2.276,0,0,1,1.859-.694c1.411.012,2.822,0,4.255,0a14.2,14.2,0,0,1-.422-1.371,7.178,7.178,0,0,1,2.407-7.373,46.854,46.854,0,0,1,5.6-3.724c2.286-1.4,4.631-2.707,6.945-4.062a2.724,2.724,0,0,0,.432-.44,4.8,4.8,0,0,1-4.385-3.1,6.877,6.877,0,0,1-.367-3.03,4.146,4.146,0,0,1,1.308-2.961q1.715-1.716,3.431-3.431A4.57,4.57,0,0,1,25.053,0Q27.829,0,30.6,0a4.6,4.6,0,0,1,3.334,1.449c.572.572,1.154,1.134,1.714,1.717a4.721,4.721,0,0,0,3.461,1.449c.452.01.9,0,1.357.006a1.493,1.493,0,0,1,1.446,2.2,13.884,13.884,0,0,1-2.36,3.733,5.711,5.711,0,0,1-4.26,1.812c-1.437-.009-2.874,0-4.373,0,0,.639.034,1.252-.008,1.86a2.2,2.2,0,0,0,.783,1.98A7.119,7.119,0,0,1,34.013,21.8a7.45,7.45,0,0,1-3.185,6.059,1.169,1.169,0,0,0-.611.966c-.027.705-.161,1.407-.253,2.139a4.447,4.447,0,0,1,2.261.967,6.11,6.11,0,0,1,1.113,1.247,1.511,1.511,0,0,1-1.259,2.364c-1.959.035-3.92.023-5.879,0a1.433,1.433,0,0,1-1.445-1.44c-.03-1.4-.015-2.8-.019-4.194,0-.161,0-.323,0-.569-.8.039-1.564.048-2.319.124a1.376,1.376,0,0,0-1,.719c-.216.347-.4.712-.574,1.022.53.427,1.042.806,1.512,1.232a3.583,3.583,0,0,1,.6.779,1.519,1.519,0,0,1-1.2,2.327c-.137.01-.274.015-.411.015q-9.375,0-18.75.006A2.407,2.407,0,0,1,.212,34.209C.134,34.055.07,33.893,0,33.734v-.987m28.25-.431a.47.47,0,0,1-.025-.113c.192-1.561.38-3.123.589-4.683a.682.682,0,0,1,.268-.372c.473-.372.986-.7,1.438-1.09a5.991,5.991,0,0,0,1.547-6.571A7.141,7.141,0,0,0,29.7,16.548a.794.794,0,0,1-.339-.722c.017-1.247-.006-2.495.015-3.742a.886.886,0,0,0-.356-.762,3.415,3.415,0,0,1-1.167-2.064c.505,0,.968-.011,1.428.01a.4.4,0,0,1,.252.21A2.314,2.314,0,0,0,31.761,10.8c1.179-.012,2.358-.007,3.536,0,2.373.01,3.643-1.558,4.4-3.306a4.655,4.655,0,0,1-.758-.927.75.75,0,0,0-.719-.465,5.248,5.248,0,0,1-2.888-1.167c-.844-.717-1.622-1.512-2.408-2.3a3.4,3.4,0,0,0-2.607-1.083c-.931.027-1.864.006-2.8.006H26.3V2.1c0,2.316.008,4.633,0,6.95a4.351,4.351,0,0,1-2.2,4.091,1.488,1.488,0,0,0-.924,1.708.58.58,0,0,1-.26.429c-.553.353-1.132.665-1.7,1-3.544,2.125-7.118,4.2-10.618,6.4A5.846,5.846,0,0,0,7.8,28.492a6.107,6.107,0,0,0,5.876,5.489c2.535.033,5.071.011,7.607.011a1.9,1.9,0,0,0,.279-.044c-.665-1.128-1.871-1.366-2.914-1.913,1.844-2.957,2.066-5.836-.318-8.569l1.065-1.092a7.764,7.764,0,0,1,2.25,5.583l3.106-.2V26.294h1.56v7.663H31.97c-.872-1.473-2.371-1.415-3.721-1.642M24.712,1.632a2.909,2.909,0,0,0-1.878.924c-1.158,1.146-2.306,2.3-3.457,3.454a2.392,2.392,0,0,0-.785,1.578,16.457,16.457,0,0,0,0,1.888,3.077,3.077,0,0,0,6.139-.419c.01-2.354,0-4.709,0-7.064,0-.107-.013-.215-.023-.361M9.139,33.976c-.416-.448-.8-.873-1.2-1.281a.6.6,0,0,0-.368-.193q-2.609-.021-5.218-.01a.748.748,0,0,0-.791.723.77.77,0,0,0,.865.775q3.246.006,6.492,0c.076,0,.153-.011.219-.016" transform="translate(0 0)" fill="#4c8da7"/>
    <path id="Path_9099" data-name="Path 9099" d="M256.693,31.982a1.125,1.125,0,0,1,1.154,1.132,1.155,1.155,0,1,1-1.154-1.132" transform="translate(-224.611 -28.111)" fill="#4c8da7"/>
  </g>
</svg>
