<svg id="cald" xmlns="http://www.w3.org/2000/svg" xmlns:xlink="http://www.w3.org/1999/xlink" width="18.244" height="18.268" viewBox="0 0 18.244 18.268">
  <defs>
    <clipPath id="clip-path">
      <rect id="Rectangle_4228" data-name="Rectangle 4228" width="18.244" height="18.268" fill="#4c8da7"/>
    </clipPath>
  </defs>
  <g id="Group_7709" data-name="Group 7709" clip-path="url(#clip-path)">
    <path id="Path_9019" data-name="Path 9019" d="M3.241,1.813c0-.217,0-.411,0-.6a1.191,1.191,0,1,1,2.382.007c0,.188,0,.377,0,.582h7c0-.2,0-.389,0-.582A1.191,1.191,0,1,1,15,1.21c0,.194,0,.387,0,.6h2.384a.785.785,0,0,1,.856.854q0,7.4,0,14.793a.766.766,0,0,1-.8.807q-8.314,0-16.629,0a.772.772,0,0,1-.8-.847Q0,13.44,0,9.459,0,6.081,0,2.7a.79.79,0,0,1,.634-.872,1.135,1.135,0,0,1,.243-.017H3.241M.535,6.183c0,.072-.009.127-.009.182q0,5.508,0,11.016c0,.3.069.365.367.365H17.348c.307,0,.371-.066.371-.381q0-5.489,0-10.978v-.2ZM12.622,2.357h-7c0,.172,0,.334,0,.5a1.973,1.973,0,0,1-.024.356,1.19,1.19,0,0,1-2.356-.227c0-.205,0-.411,0-.618a.717.717,0,0,0-.1-.016c-.772,0-1.544,0-2.316,0-.212,0-.3.1-.3.323q0,1.415,0,2.829c0,.048.009.1.013.143H17.712v-.2q0-1.358,0-2.716c0-.3-.074-.38-.374-.38H15.192c-.06,0-.119.007-.188.011,0,.211,0,.4,0,.587a1.191,1.191,0,1,1-2.382,0c0-.193,0-.386,0-.589M5.1,2.092q0-.217,0-.433c0-.151,0-.3,0-.453A.662.662,0,0,0,4.445.525a.655.655,0,0,0-.681.674q-.012.886,0,1.771A.668.668,0,1,0,5.1,2.96c.006-.289,0-.578,0-.867m8.042-.022c0,.3,0,.591,0,.886a.668.668,0,1,0,1.336.017q.013-.885,0-1.771a.668.668,0,1,0-1.336,0c-.006.289,0,.578,0,.867" transform="translate(0 0)" fill="#4c8da7"/>
    <path id="Path_9020" data-name="Path 9020" d="M121.641,216.859c.2,0,.4,0,.6,0a.532.532,0,0,1,.567.584c0,.314,0,.628,0,.942a.521.521,0,0,1-.546.566c-.42.011-.84.012-1.26,0a.511.511,0,0,1-.535-.554q-.007-.49,0-.98a.519.519,0,0,1,.552-.558c.207-.007.414,0,.62,0M121,218.417h1.275V217.4H121Z" transform="translate(-114.404 -205.946)" fill="#4c8da7"/>
    <path id="Path_9021" data-name="Path 9021" d="M196.669,279.16c.207,0,.414-.005.62,0a.518.518,0,0,1,.55.559q.007.49,0,.98a.513.513,0,0,1-.538.551q-.629.015-1.26,0a.521.521,0,0,1-.543-.568q0-.48,0-.961a.524.524,0,0,1,.55-.561c.207-.007.414,0,.62,0m-.641,1.559h1.282v-1.024h-1.282Z" transform="translate(-185.659 -265.111)" fill="#4c8da7"/>
    <path id="Path_9022" data-name="Path 9022" d="M121.631,156.652c-.2,0-.4.005-.6,0a.52.52,0,0,1-.558-.569c0-.326,0-.653,0-.98a.51.51,0,0,1,.528-.54q.639-.015,1.278,0a.518.518,0,0,1,.533.558c0,.32,0,.64,0,.961a.528.528,0,0,1-.561.57c-.207.006-.414,0-.62,0m.651-1.558H121v1.023h1.281Z" transform="translate(-114.406 -146.777)" fill="#4c8da7"/>
    <path id="Path_9023" data-name="Path 9023" d="M196.684,154.611c.2,0,.4,0,.6,0a.523.523,0,0,1,.56.568q.006.48,0,.961a.514.514,0,0,1-.546.561q-.62.014-1.241,0a.523.523,0,0,1-.554-.576q0-.471,0-.942a.528.528,0,0,1,.559-.572c.207-.006.414,0,.62,0m-.646,1.558h1.273v-1.027h-1.273Z" transform="translate(-185.665 -146.829)" fill="#4c8da7"/>
    <path id="Path_9024" data-name="Path 9024" d="M196.68,218.9c-.2,0-.4,0-.6,0a.535.535,0,0,1-.576-.595c0-.314,0-.628,0-.942a.519.519,0,0,1,.536-.555c.426-.011.853-.012,1.278,0a.508.508,0,0,1,.525.544c.006.326,0,.653,0,.98a.52.52,0,0,1-.543.566c-.206.009-.414,0-.62,0Zm-.638-.537h1.268v-1.025h-1.268Z" transform="translate(-185.663 -205.892)" fill="#4c8da7"/>
    <path id="Path_9025" data-name="Path 9025" d="M121.632,281.2c-.2,0-.4,0-.6,0a.522.522,0,0,1-.56-.568c0-.326,0-.653,0-.98a.508.508,0,0,1,.527-.541q.639-.016,1.278,0a.518.518,0,0,1,.535.556q.006.49,0,.98a.527.527,0,0,1-.54.554h-.639m-.636-.534h1.276v-1.026H121Z" transform="translate(-114.406 -265.06)" fill="#4c8da7"/>
    <path id="Path_9026" data-name="Path 9026" d="M46.4,281.224c-.2,0-.4,0-.6,0a.528.528,0,0,1-.566-.567q-.011-.48,0-.961a.525.525,0,0,1,.568-.564c.407-.006.815-.007,1.222,0a.521.521,0,0,1,.556.556q.013.489,0,.979a.525.525,0,0,1-.559.555c-.207.007-.414,0-.62,0m.65-1.562H45.758v1.027h1.287Z" transform="translate(-42.947 -265.082)" fill="#4c8da7"/>
    <path id="Path_9027" data-name="Path 9027" d="M46.411,216.871c.194,0,.389,0,.583,0a.536.536,0,0,1,.591.582c.006.314.007.628,0,.942a.528.528,0,0,1-.564.57q-.611.013-1.222,0a.526.526,0,0,1-.562-.571c-.007-.314-.006-.628,0-.942a.535.535,0,0,1,.592-.581c.194,0,.389,0,.583,0m-.643,1.561h1.285V217.4H45.768Z" transform="translate(-42.955 -205.958)" fill="#4c8da7"/>
    <path id="Path_9028" data-name="Path 9028" d="M271.679,218.929c-.2,0-.4.006-.6,0a.53.53,0,0,1-.565-.569q-.01-.48,0-.961a.527.527,0,0,1,.57-.563q.6-.01,1.2,0a.531.531,0,0,1,.574.578c.006.314.007.628,0,.942a.532.532,0,0,1-.579.574c-.2.005-.4,0-.6,0m-.629-.534h1.281v-1.028H271.05Z" transform="translate(-256.897 -205.919)" fill="#4c8da7"/>
    <path id="Path_9029" data-name="Path 9029" d="M271.664,156.676c-.2,0-.4.006-.6,0a.523.523,0,0,1-.557-.556q-.013-.489,0-.979a.523.523,0,0,1,.558-.555c.407-.007.815-.006,1.222,0a.522.522,0,0,1,.565.547q.016.5,0,1a.519.519,0,0,1-.548.545c-.213.008-.426,0-.639,0m.656-1.556h-1.282v1.028h1.282Z" transform="translate(-256.889 -146.801)" fill="#4c8da7"/>
  </g>
</svg>
