<svg id="statistic-icon02" xmlns="http://www.w3.org/2000/svg" xmlns:xlink="http://www.w3.org/1999/xlink" width="36" height="28.322" viewBox="0 0 36 28.322">
  <defs>
    <clipPath id="clip-path">
      <rect id="Rectangle_5290" data-name="Rectangle 5290" width="36" height="28.322" fill="#4c8da7"/>
    </clipPath>
  </defs>
  <g id="Group_8909" data-name="Group 8909" clip-path="url(#clip-path)">
    <path id="Path_9080" data-name="Path 9080" d="M36,14.7a7.387,7.387,0,0,1-2.058,3.153,24.652,24.652,0,0,1-7.122,5.564,7.839,7.839,0,0,0-1.867,1.254A14.018,14.018,0,0,1,12.7,28.032a1.706,1.706,0,0,1-1.423-1.371,1.724,1.724,0,0,1,.758-1.761c.8-.609,1.57-1.251,2.348-1.886a4.063,4.063,0,0,0,.357-.38,25.363,25.363,0,0,1-5.069-4.2c-.043.094-.077.159-.1.227A7.26,7.26,0,0,1,3.857,23.4a10.184,10.184,0,0,1-3.039.146A1.016,1.016,0,0,1,0,22.986V20.669c.072-.386.133-.775.218-1.158A7.157,7.157,0,0,1,4.124,14.3l.282-.139a.59.59,0,0,0-.1-.086,7.094,7.094,0,0,1-3.993-4.9C.183,8.71.1,8.229,0,7.755V5.3a1.133,1.133,0,0,1,1.1-.566,11.045,11.045,0,0,1,4.276.623A6.947,6.947,0,0,1,9.546,9.549c.036.1.071.192.12.323a25.311,25.311,0,0,1,5.066-4.2,2.382,2.382,0,0,0-.235-.262c-.82-.676-1.622-1.375-2.47-2.013A1.687,1.687,0,0,1,11.981.581,2.921,2.921,0,0,1,13.094.2,14.1,14.1,0,0,1,25.6,4.179a1.355,1.355,0,0,0,.384.292,20.771,20.771,0,0,1,6.783,4.781c.811.825,1.553,1.719,2.333,2.575A4.393,4.393,0,0,1,36,13.58Zm-8.971,6.9a11.428,11.428,0,0,1-2.84-7.477,11.434,11.434,0,0,1,2.849-7.456c-.454-.224-.867-.441-1.29-.634a9.563,9.563,0,0,0-6.8-.585,15.637,15.637,0,0,0-5.37,2.886,27.8,27.8,0,0,0-3.667,3.523.792.792,0,0,1-.843.3.749.749,0,0,1-.562-.687c-.013-.1-.043-.205-.066-.308A5.516,5.516,0,0,0,4.512,6.653a9.027,9.027,0,0,0-3.02-.378c.042.539.058,1.052.125,1.557a6.033,6.033,0,0,0,2,4.048,6.845,6.845,0,0,0,3.6,1.421.8.8,0,0,1,.776.829.81.81,0,0,1-.763.85c-.162.021-.324.044-.485.072a5.588,5.588,0,0,0-4.886,4.176,9.668,9.668,0,0,0-.332,2.828c.662-.066,1.293-.1,1.912-.195a5.433,5.433,0,0,0,4.479-3.18,12.1,12.1,0,0,0,.575-1.867.784.784,0,0,1,1.434-.367c.407.467.824.928,1.258,1.37a19.4,19.4,0,0,0,6.054,4.423,10.487,10.487,0,0,0,9.791-.638M28.39,7.476a9.622,9.622,0,0,0-.022,13.285c.046-.028.1-.054.142-.087A27.108,27.108,0,0,0,34.1,15.286a1.824,1.824,0,0,0-.064-2.361c-1.115-1.23-2.242-2.45-3.424-3.615-.678-.668-1.471-1.22-2.224-1.834m-5.9-3.866a2,2,0,0,0-.16-.133,12.572,12.572,0,0,0-9.218-1.736,1.185,1.185,0,0,0-.317.172,1.188,1.188,0,0,0,.234.306,13.874,13.874,0,0,1,2.917,2.513.292.292,0,0,0,.416.082,11.951,11.951,0,0,1,6.128-1.2m-.066,21.178-.043-.089c-.229.011-.458.032-.687.032A12.462,12.462,0,0,1,16.4,23.51c-.183-.085-.307-.138-.478.059a13.654,13.654,0,0,1-2.895,2.484,1.35,1.35,0,0,0-.251.3,1.168,1.168,0,0,0,.334.2,12.423,12.423,0,0,0,7.191-.709c.726-.3,1.411-.7,2.115-1.053" transform="translate(0 -0.001)" fill="#4c8da7"/>
    <path id="Path_9081" data-name="Path 9081" d="M300.774,137.955c0-.187-.006-.374,0-.561a.755.755,0,0,1,.706-.771.727.727,0,0,1,.8.665,7.883,7.883,0,0,1,0,1.329.727.727,0,0,1-.8.669.757.757,0,0,1-.708-.735c-.012-.2,0-.4,0-.6h0" transform="translate(-272.574 -123.813)" fill="#4c8da7"/>
  </g>
</svg>
