<svg id="statistic-icon06" xmlns="http://www.w3.org/2000/svg" xmlns:xlink="http://www.w3.org/1999/xlink" width="36.005" height="36" viewBox="0 0 36.005 36">
  <defs>
    <clipPath id="clip-path">
      <rect id="Rectangle_5305" data-name="Rectangle 5305" width="36.004" height="36" fill="#4c8da7"/>
    </clipPath>
  </defs>
  <g id="Group_8929" data-name="Group 8929" clip-path="url(#clip-path)">
    <path id="Path_9095" data-name="Path 9095" d="M11.18,0a5.214,5.214,0,0,1,.579.6A15.871,15.871,0,0,0,15.6,4.469,13.032,13.032,0,0,0,19.806,6.33c.779.207,1.551.438,2.327.656a4.319,4.319,0,0,1,2.462,1.647c.3-.336.583-.646.86-.957.5-.56.972-1.145,1.5-1.68a4.461,4.461,0,0,1,7.2,1.113c.614,1.143,1.174,2.315,1.744,3.48.29.594-.036,1.078-.707,1.082-.387,0-.773,0-1.16,0a2.144,2.144,0,0,0-2.247,2.259c-.008,1.313.007,2.625,0,3.938a10.277,10.277,0,0,1-4.331,8.451,10.893,10.893,0,0,1-6.878,2.232c-1.512-.013-3.023.007-4.535-.011a.483.483,0,0,0-.529.365c-.781,1.877-1.577,3.748-2.373,5.62a2.125,2.125,0,0,1-2.194,1.468,1.93,1.93,0,0,1-.707-.18c-1.314-.639-2.632-1.271-3.922-1.956a2.025,2.025,0,0,1-.621-3.074c1.29-1.533,2.632-3.021,3.955-4.525q1.381-1.571,2.769-3.135a1.459,1.459,0,0,0,.1-.128c-.838-.177-1.687-.292-2.5-.539A10.112,10.112,0,0,1,4.259,18Q2.124,14.593,0,11.181v-.422a.882.882,0,0,1,.915-.5c.854.024,1.709.006,2.564.007A36.163,36.163,0,0,0,9.4,9.99c.546-.089,1.087-.21,1.632-.316a18.758,18.758,0,0,1-.763-6.157c0-.867.016-1.734-.007-2.6a.891.891,0,0,1,.5-.917ZM34.158,10.263c-.484-.948-.9-1.851-1.393-2.708A3.033,3.033,0,0,0,27.856,7.1Q25.8,9.431,23.729,11.756c-.236.267-.469.536-.719.822.347.212.663.389.961.591a.7.7,0,0,1,.256.975.718.718,0,0,1-.984.233c-.084-.041-.162-.094-.242-.142-1.685-1.011-3.375-2.016-5.055-3.037a5.768,5.768,0,0,0-4.98-.61A19.874,19.874,0,0,1,7.608,11.6c-1.732.063-3.467.048-5.2.067-.122,0-.243,0-.425,0,.588.942,1.13,1.828,1.693,2.7a.961.961,0,0,0,.415.334c.623.265,1.255.51,1.889.751a9.949,9.949,0,0,0,5.965.356,9.562,9.562,0,0,0,2.772-1.153,1.115,1.115,0,0,1,.689-.12.6.6,0,0,1,.479.579.769.769,0,0,1-.461.762,11.267,11.267,0,0,1-8.375,1.376c-.644-.131-1.267-.367-1.9-.554l-.066.053a25.041,25.041,0,0,0,1.571,2.012A8.631,8.631,0,0,0,12.629,21.5a10.466,10.466,0,0,0,5.145-.815,9.648,9.648,0,0,0,2.5-1.735.709.709,0,1,1,.948,1.043,17.36,17.36,0,0,1-1.562,1.246A9.869,9.869,0,0,1,14.8,22.895a.768.768,0,0,0-.558.3q-3.635,4.129-7.279,8.25c-.482.546-.395.991.25,1.31q1.682.832,3.367,1.658c.648.319.962.208,1.242-.45q.851-2,1.695-4l.51-1.2a3.75,3.75,0,0,0-2.178,1.753,2.156,2.156,0,0,1-.363.592.88.88,0,0,1-.642.226.858.858,0,0,1-.532-.476,1,1,0,0,1,.121-.694,5.174,5.174,0,0,1,4.851-3.007c1.769-.011,3.539.027,5.308-.015a12.1,12.1,0,0,0,2.468-.285,9.363,9.363,0,0,0,7.32-9.331c-.033-1.277-.02-2.555,0-3.832a3.356,3.356,0,0,1,1.161-2.505,3.568,3.568,0,0,1,2.615-.916M21.763,11.83l1.849-2.084A2.5,2.5,0,0,0,22.169,8.5c-.621-.2-1.251-.377-1.878-.56a21.716,21.716,0,0,1-3.8-1.3,15.367,15.367,0,0,1-4.473-3.458c-.094-.1-.193-.2-.334-.349a18.681,18.681,0,0,0,.733,6.392.783.783,0,0,0,.12-.007c.068-.016.135-.037.2-.056a6.959,6.959,0,0,1,5.525.589c1.172.657,2.313,1.368,3.5,2.075" transform="translate(0 0.001)" fill="#4c8da7"/>
    <path id="Path_9096" data-name="Path 9096" d="M346.4,85.391a.7.7,0,1,1-.678-.7.7.7,0,0,1,.678.7" transform="translate(-314.617 -77.229)" fill="#4c8da7"/>
  </g>
</svg>
