<svg xmlns="http://www.w3.org/2000/svg" width="92.083" height="60.011" viewBox="0 0 92.083 60.011">
  <g id="Group_8960" data-name="Group 8960" transform="translate(-12757 244)">
    <path id="Path_9136" data-name="Path 9136" d="M65.067,209.446a25.409,25.409,0,0,1-25.53.591c-9.006-4.68-13.624-12.054-14.218-22.215-.021-.354-.02-1.865-.015-2.212.012-.9.258-1.4,1.178-1.427,1.031-.031.9,1.411.9,2.195a23.427,23.427,0,0,0,2,10.006c4.226,8.933,11.406,13.831,21.185,14.323,9.491.478,16.916-3.6,22.067-11.655.254-.4.449-.836.713-1.226.438-.645.978-1.415,1.858-.957.812.422.4,1.413.059,2.038-2.171,4.037-5.214,7.284-10.2,10.539" transform="translate(12735.959 -397.176)" fill="#474645"/>
    <path id="Path_9137" data-name="Path 9137" d="M6.342,141.808H4.262v-9.5H0a2.08,2.08,0,0,1,2.08-2.08H8.523a2.08,2.08,0,0,1,2.08,2.08H6.342Z" transform="translate(12757 -352.307)" fill="#474645"/>
    <path id="Path_9138" data-name="Path 9138" d="M56.416,177.566a3.1,3.1,0,0,1-1.938-.651,3.764,3.764,0,0,1,0-5.664,3.127,3.127,0,0,1,1.938-.676l4.16.014c.087-1.828-1.312-1.882-2.6-1.882l-4.616.012-.017-.35c0-1.274.961-1.678,2.067-1.678H58a4.236,4.236,0,0,1,3.223,1.228,5.1,5.1,0,0,1,1.132,3.459v6.189Zm4.181-5.01H56.319c-.828,0-1.123.725-1.123,1.527s.352,1.475,1.179,1.475h2.4c1.142,0,1.924-.487,1.821-2.687Z" transform="translate(12712.762 -382.628)" fill="#474645"/>
    <path id="Path_9139" data-name="Path 9139" d="M118.9,174.587h0V163.313l1.008,1,1.008-1v9.258a2.016,2.016,0,0,1-2.016,2.016" transform="translate(12658.118 -379.82)" fill="#474645"/>
    <path id="Path_9140" data-name="Path 9140" d="M150.948,172.826a2.016,2.016,0,0,1-2.016,2.016h-2.215c-3.517,0-5.3-1.891-5.3-5.62s1.783-5.6,5.3-5.6h2.215a2.016,2.016,0,0,1,2.016,2.016h-4.231a3.608,3.608,0,1,0,0,7.19Z" transform="translate(12639.391 -380.075)" fill="#474645"/>
    <path id="Path_9141" data-name="Path 9141" d="M208.306,173.511a4.894,4.894,0,0,1-3.815-1.768,5.91,5.91,0,0,1-1.573-4.191,5.974,5.974,0,0,1,1.575-4.192,4.929,4.929,0,0,1,3.813-1.748,4.982,4.982,0,0,1,3.813,1.748,6.119,6.119,0,0,1,1.576,4.192,6.058,6.058,0,0,1-1.575,4.192,4.945,4.945,0,0,1-3.813,1.766m.018-9.882a3.132,3.132,0,0,0-2.4,1.137,4.1,4.1,0,0,0-1.006,2.805,4,4,0,0,0,1.006,2.787,3.087,3.087,0,0,0,2.4,1.137,3.037,3.037,0,0,0,2.363-1.134,4.072,4.072,0,0,0,1.009-2.791,4.167,4.167,0,0,0-1.009-2.808,3.081,3.081,0,0,0-2.363-1.134" transform="translate(12588.243 -378.406)" fill="#474645"/>
    <path id="Path_9142" data-name="Path 9142" d="M284.116,174.842h-4.338a4.356,4.356,0,0,1-3.4-1.143,4.412,4.412,0,0,1-.952-3.106V163.62a2,2,0,0,1,2,2v4.8a2.8,2.8,0,0,0,.457,1.811,2.431,2.431,0,0,0,1.9.6H282.1A2.016,2.016,0,0,1,284.116,174.842Z" transform="translate(12527.944 -380.075)" fill="#474645"/>
    <rect id="Rectangle_5432" data-name="Rectangle 5432" width="3.649" height="3.649" transform="translate(12775.444 -219.72) rotate(-45)" fill="#cb720d"/>
    <path id="Path_9143" data-name="Path 9143" d="M188.486,42.4c2.527.029,5.015.085,7.149.143-22.487-44.368-54.234-20.9-60.03-16.066a1.191,1.191,0,0,0-.024.871c5.273-4.221,32.634-23.382,52.9,15.052" transform="translate(12644.303 -257.271)" fill="#f8c030"/>
    <path id="Path_9144" data-name="Path 9144" d="M196.1,29.268c3.623.1,6.22.207,6.22.207s-6.373-17.043-17.507-23.454c-22.973-13.227-40.008-1.766-48.46,6.767a1.338,1.338,0,0,0-.282.414c5.8-4.83,37.543-28.3,60.03,16.066" transform="translate(12643.835 -244)" fill="#b3c151"/>
    <path id="Path_9145" data-name="Path 9145" d="M210.035,90.105c-.14-2.5-1.816-4.636-4.5-4.571-7.683.186-16.09-.145-23.768.154a4.043,4.043,0,0,0-4.074,3.025,2.561,2.561,0,0,0,.265,2.269c.518.678.1-2.54,2.434-3.183a2.962,2.962,0,0,1,2.928.979,3.261,3.261,0,0,1,.67,3.136c-.783,2.922-3.944,3.6-6.3,1.642a5.467,5.467,0,0,1-1.4-6.754,6.941,6.941,0,0,1,2.512-2.725,3.836,3.836,0,0,1,1.283-.366c-13.256-27.595-34.291-16.947-38.244-14.622a1.257,1.257,0,0,0,.766-.124,20.558,20.558,0,0,1,15.845-1.494c17.983,6,15.316,23.38,16.172,24.99,1.69,3.178,4.18,4.3,7.636,4.138,5.712-.262,21.756-.094,23.412-.252,3.8-.362,4.513-3.325,4.35-6.244" transform="translate(12639.027 -298.166)" fill="#377690"/>
    <path id="Path_9146" data-name="Path 9146" d="M176.57,72.012a54.821,54.821,0,0,1,6.785-.414C166.163,39.408,142.119,53.888,137.612,57a1.241,1.241,0,0,0,.714.386c3.953-2.325,24.988-12.973,38.244,14.622" transform="translate(12642.555 -286.465)" fill="#62a89f"/>
    <path id="Path_9147" data-name="Path 9147" d="M181.958,56.639c2.155-.038,4.53-.035,6.879-.007C168.566,18.2,141.2,37.359,135.932,41.579a1.327,1.327,0,0,0,.283.466c4.507-3.116,28.551-17.6,45.743,14.594" transform="translate(12643.952 -271.506)" fill="#dc6c5c"/>
  </g>
</svg>
