<svg id="Group_6882" data-name="Group 6882" xmlns="http://www.w3.org/2000/svg" xmlns:xlink="http://www.w3.org/1999/xlink" width="36.847" height="36.775" viewBox="0 0 36.847 36.775">
  <defs>
    <clipPath id="clip-path">
      <rect id="Rectangle_65" data-name="Rectangle 65" width="36.847" height="36.775" fill="#4c8da7"/>
    </clipPath>
  </defs>
  <g id="Group_135" data-name="Group 135" clip-path="url(#clip-path)">
    <path id="Path_6196" data-name="Path 6196" d="M0,15.8V13.791c.093-.611.172-1.224.282-1.832A14.8,14.8,0,0,1,11.626.36C12.373.206,13.135.118,13.89,0h1.943c.091.022.182.049.274.065.813.14,1.642.22,2.438.424a14.772,14.772,0,0,1,9.4,21.166c-.407.768-.9,1.489-1.4,2.3a2.517,2.517,0,0,1,.305.233q4.493,4.478,8.985,8.958a3.734,3.734,0,0,1,1.016,1.4v.718a2.258,2.258,0,0,1-.753,1.148,1.856,1.856,0,0,1-2.5-.29q-4.694-4.682-9.383-9.369A1.8,1.8,0,0,1,24,26.422c-.154.116-.212.156-.27.2A14.833,14.833,0,0,1,.359,17.991C.208,17.268.118,16.532,0,15.8m3.673-1.04A11.15,11.15,0,1,0,14.861,3.676,11.17,11.17,0,0,0,3.673,14.762" fill="#4c8da7"/>
  </g>
</svg>
