<svg id="ssicon01" xmlns="http://www.w3.org/2000/svg" xmlns:xlink="http://www.w3.org/1999/xlink" width="70" height="70.016" viewBox="0 0 70 70.016">
  <defs>
    <clipPath id="clip-path">
      <rect id="Rectangle_1858" data-name="Rectangle 1858" width="70" height="70.016" fill="#4c8da7"/>
    </clipPath>
  </defs>
  <g id="Group_6887" data-name="Group 6887" clip-path="url(#clip-path)">
    <path id="Path_8915" data-name="Path 8915" d="M37.45,0c1.234.178,2.477.312,3.7.542a34.426,34.426,0,0,1,23.987,16.67,33.71,33.71,0,0,1,4.8,19.778A35.007,35.007,0,0,1,.863,42.811c-.351-1.569-.49-3.185-.732-4.779-.03-.2-.086-.389-.13-.583V32.392c.151-1.074.272-2.153.457-3.222a34.4,34.4,0,0,1,8.9-18.012A34.283,34.283,0,0,1,28.827.54C30.055.322,31.3.178,32.53,0ZM34.258,1.29C16.278,1.463,1.32,16.693,1.293,34.378H34.258ZM68.714,34.342C68.265,14.282,51.1.958,35.582,1.339v33ZM34.237,68.7V35.716H1.289A33.746,33.746,0,0,0,34.237,68.7m1.348-33.022V68.713c19.034-.3,33.094-16.268,33.087-33.032Z" transform="translate(-0.001)" fill="#4c8da7"/>
    <path id="Path_8916" data-name="Path 8916" d="M65.83,71.72c.57.154,1.438-.225,1.415.711-.022.915-.9.493-1.422.686a9.167,9.167,0,0,1-6.734,8.035l1.055,2.056c.2.392.331.815-.151,1.064-.463.239-.759-.041-.962-.467-.254-.532-.581-1.034-.793-1.581a1.115,1.115,0,0,0-1.63-.778c.273.547.544,1.127.849,1.689.234.431.336.843-.184,1.1-.5.246-.739-.136-.936-.521a4.042,4.042,0,0,1-.184-.365,4.283,4.283,0,0,0-2.91-2.9,6.558,6.558,0,0,1-2.322-1.616.78.78,0,0,0-1.148-.106c-1.216.754-2.46,1.464-3.7,2.179-.544.314-1.075.193-1.071-.263a1.156,1.156,0,0,1,.5-.829c2.688-1.614,5.4-3.189,8.1-4.773,1.8-1.057,3.615-2.1,5.406-3.179a1.4,1.4,0,0,0,.58-.683,3.132,3.132,0,0,1,3.371-2.287,3.065,3.065,0,0,1,2.806,2.628,1.8,1.8,0,0,0,.066.2M53.286,79.034a7,7,0,0,0,6.63.45A7.451,7.451,0,0,0,64.08,75.02a5.225,5.225,0,0,1-3.538-1.34,7.435,7.435,0,0,1-7.256,5.354m5.928-5.822-7.163,4.2c3.04.981,6.869-1.274,7.163-4.2m5.324-.739c0-.182.005-.364,0-.546A1.768,1.768,0,0,0,63.15,70.21a1.9,1.9,0,0,0-2.136.817,1.064,1.064,0,0,0,.072,1.323,3.435,3.435,0,0,0,1.955,1.287c1.266.3,1.487.114,1.5-1.165" transform="translate(-36.786 -56.302)" fill="#4c8da7"/>
    <path id="Path_8917" data-name="Path 8917" d="M225.609,97.482a5.282,5.282,0,0,1,4.823-2.31,3.056,3.056,0,0,1,.862.178c.631.238.748.557.439,1.162-.549,1.072-1.1,2.147-1.682,3.2a1.043,1.043,0,0,0-.008,1.178c.642,1.1,1.23,2.229,1.829,3.352.363.68.233,1-.517,1.191a5.107,5.107,0,0,1-4.883-1.19c-.239-.207-.454-.443-.7-.686-.44.408-.861.844-1.327,1.223a8.564,8.564,0,0,1-13.35-3.711,1.639,1.639,0,0,1,.023-1.035,8.555,8.555,0,0,1,13.983-3.08c.162.159.316.327.511.529m4.769-1.1a4.113,4.113,0,0,0-3.908,2.168c-.531.979-.857,1.006-1.541.1a7.327,7.327,0,0,0-12.442,1.317,1.278,1.278,0,0,0,0,1.211,7.317,7.317,0,0,0,12.558,1.168c.652-.895.956-.887,1.52.038a3.72,3.72,0,0,0,3.877,1.856c-.6-1.109-1.168-2.215-1.787-3.294a1.144,1.144,0,0,1,0-1.263c.581-1.047,1.113-2.121,1.727-3.3" transform="translate(-172.489 -77.255)" fill="#4c8da7"/>
    <path id="Path_8918" data-name="Path 8918" d="M56.5,231.436c.473-.666.925-1.327,1.408-1.965a2.668,2.668,0,0,1,.578-.475c.359-.263.744-.428,1.069.022s.04.76-.334,1a3.2,3.2,0,0,0-1.379,1.883,2.362,2.362,0,0,0,.023.7l.2.032c.356-.432.7-.873,1.07-1.3a13.979,13.979,0,0,1,6.723-4.585,1.441,1.441,0,0,1,1.536.208,1.382,1.382,0,0,1,.237,1.522c-.473,1.635-.885,3.289-1.4,4.912a8.05,8.05,0,0,1-.936,1.546,5.138,5.138,0,0,1,.651,4.506,3.574,3.574,0,0,1-1.685,2.235c-2.035,1.278-4.82.652-6.657-1.575-.091.556-.17,1.031-.247,1.506-.064.4-.158.808-.653.82-.53.013-.645-.385-.7-.83-.062-.489-.168-.972-.263-1.507-1.877,2.308-4.823,2.85-6.9,1.442-1.8-1.225-2.249-4.786-.625-6.823-.772-.213-1.006-.829-1.187-1.508q-.63-2.369-1.3-4.727a1.382,1.382,0,0,1,.234-1.522,1.447,1.447,0,0,1,1.537-.2,13.473,13.473,0,0,1,6.219,4.026c.543.581,1.032,1.212,1.668,1.966-.039-.385.017-.679-.1-.854a15.835,15.835,0,0,0-1.386-1.8c-.28-.306-.6-.548-.315-.972.3-.449.7-.311,1.072-.064a4.867,4.867,0,0,1,1.84,2.372m-1.711,3.29c-1.277,0-2.478-.008-3.678,0a2.555,2.555,0,0,0-2.459,1.808,6.447,6.447,0,0,0-.158,1.682,2.712,2.712,0,0,0,2.292,2.79c2.039.305,3.47-.412,3.916-1.967a1.754,1.754,0,0,0,.083-.465c.007-1.249,0-2.5,0-3.85m3.789.01c0,1.349-.031,2.6.009,3.846a2.471,2.471,0,0,0,1.827,2.293,6.428,6.428,0,0,0,1.614.144,2.639,2.639,0,0,0,2.764-2.131c.4-1.783-.145-3.269-1.44-3.892a1.977,1.977,0,0,0-.77-.248c-1.312-.025-2.626-.012-4-.012m-10.185-1.39H54.2c-1.967-2.55-4.136-4.582-7.325-5.449l1.517,5.449m18.09-5.459c-3.222.916-5.4,2.922-7.367,5.515,1.944,0,3.712.008,5.48-.014a.564.564,0,0,0,.425-.307c.489-1.671.949-3.35,1.462-5.194m-9.906,9.41.184.016c.16-1.066.327-2.131.478-3.2.06-.424-.1-.749-.566-.743s-.6.333-.539.758q.222,1.583.442,3.166" transform="translate(-37.287 -185.253)" fill="#4c8da7"/>
    <path id="Path_8919" data-name="Path 8919" d="M207.749,223.638c-.632,0-1.2-.009-1.762,0-.436.009-.734-.175-.733-.614s.3-.623.735-.616c.612.009,1.224,0,1.894,0a7.852,7.852,0,0,1,2.862-4.714c-.8-.81-1.543-1.585-2.81-1.342a2.271,2.271,0,0,1-1.083-.02c-.262-.085-.45-.4-.671-.608.217-.216.419-.6.655-.618a15.872,15.872,0,0,1,2.522-.011,1.9,1.9,0,0,1,.819.435c.312.217.595.476.944.761a16.287,16.287,0,0,1,.243-1.735,4.2,4.2,0,0,1,.522-1.173,1.112,1.112,0,0,0-.593-1.81c-.166-.064-.394-.024-.518-.125a5.614,5.614,0,0,1-.618-.677c.243-.183.485-.52.729-.523a2.588,2.588,0,0,1,2.448,1.662,12.623,12.623,0,0,1,1.89-.279,11.909,11.909,0,0,1,1.857.282,2.764,2.764,0,0,1,2.267-1.679c.406-.039.821-.033.9.485s-.271.655-.73.772a2.512,2.512,0,0,0-1.068.639c-.313.3-.263.663-.03,1.1a26.017,26.017,0,0,1,1.055,2.563c-.09.016-.027.024-.006,0,1.12-1.407,2.691-1.04,4.155-1.018.212,0,.419.36.629.553-.21.216-.385.514-.641.625a1.659,1.659,0,0,1-.877.018,2.8,2.8,0,0,0-2.808,1.149,17.854,17.854,0,0,1,1.815,2.047,14.242,14.242,0,0,1,1.327,2.729c.154.4.294.549.7.516a2.3,2.3,0,0,1,.947.022c.24.09.556.39.555.6s-.334.519-.57.574a6.162,6.162,0,0,1-1.333.026,8.424,8.424,0,0,1-1.457,4.688,2.917,2.917,0,0,1,1.582,2.137c.075.431.056.861-.478.97s-.673-.272-.8-.708a2.567,2.567,0,0,0-.512-1c-.308-.34-.64-.407-1.084,0a7.85,7.85,0,0,1-10.042.106.965.965,0,0,0-1.653.618c-.119.517-.125,1.182-.892.952-.715-.214-.513-.9-.3-1.327a16.875,16.875,0,0,1,1.325-1.954,8.007,8.007,0,0,1-1.3-4.484m8.457-6.261v12.957l1.308-.285c-1.062-1.44-1.127-2.721-.105-3.553a2.964,2.964,0,0,1,1.533-.616,2.364,2.364,0,0,1,2.159,1.348,6.48,6.48,0,0,0,.849-4.6c-1.747.863-2.958.678-3.671-.523s-.3-2.338,1.2-3.4a5.291,5.291,0,0,0-3.272-1.333m-4.8,1.428c1.56,1.06,2.037,2.088,1.407,3.251a2.916,2.916,0,0,1-1.135,1.113,2.389,2.389,0,0,1-2.585-.406,6.447,6.447,0,0,0,.939,4.468c1.02-1.443,2.38-1.761,3.536-.877,1.129.863,1.152,2.262.016,3.7l1.309.269V217.339a6.36,6.36,0,0,0-3.487,1.467m1.1-2.161a8,8,0,0,1,5.41-.252A2.858,2.858,0,0,0,216.7,213.3a2.594,2.594,0,0,0-2.959-.005c-1.222.776-1.41,1.973-1.235,3.352m-.718,4.447a1.042,1.042,0,0,0-1.073-1.007,1.072,1.072,0,0,0-.98,1.041,1.027,1.027,0,1,0,2.053-.034m9.457-.152a1.006,1.006,0,1,0-2.011.029,1.055,1.055,0,0,0,1.061,1.015,1.028,1.028,0,0,0,.95-1.044m-2.313,8.212a1.066,1.066,0,0,0,1.048-1.027,1.04,1.04,0,0,0-1.023-.975,1,1,0,1,0-.025,2m-5.761-.944a.961.961,0,0,0-.986-1.045,1.006,1.006,0,0,0-1.037.946,1.044,1.044,0,0,0,1.011,1.057.967.967,0,0,0,1.013-.959" transform="translate(-167.777 -171.84)" fill="#4c8da7"/>
    <path id="Path_8920" data-name="Path 8920" d="M243.189,112.051a4.987,4.987,0,0,1-1.258,3.229c-.293.329-.637.493-1,.18s-.224-.664.048-1.01a3.483,3.483,0,0,0,0-4.774c-.27-.342-.429-.684-.061-1.014.409-.366.743-.118,1.042.218a4.947,4.947,0,0,1,1.227,3.171" transform="translate(-196.753 -88.674)" fill="#4c8da7"/>
    <path id="Path_8921" data-name="Path 8921" d="M228.66,124.411c-.19-.263-.54-.535-.526-.786a1.007,1.007,0,0,1,.6-.721.577.577,0,0,1,.717.675c-.03.288-.324.55-.5.824l-.3.008" transform="translate(-186.479 -100.443)" fill="#4c8da7"/>
  </g>
</svg>
