<svg id="statistic-icon05" xmlns="http://www.w3.org/2000/svg" xmlns:xlink="http://www.w3.org/1999/xlink" width="27.295" height="36" viewBox="0 0 27.295 36">
  <defs>
    <clipPath id="clip-path">
      <rect id="Rectangle_5304" data-name="Rectangle 5304" width="27.295" height="36" fill="#4c8da7"/>
    </clipPath>
  </defs>
  <g id="Group_8927" data-name="Group 8927" clip-path="url(#clip-path)">
    <path id="Path_9094" data-name="Path 9094" d="M3.453,36c-.066-.062-.136-.119-.2-.186a.62.62,0,0,1,.308-1.028,1.845,1.845,0,0,1,.452-.041q4.588,0,9.175,0h.439c.007-.142.017-.256.017-.369,0-1.769,0-3.539-.006-5.308a1.116,1.116,0,0,0-.146-.521,12.43,12.43,0,0,0-2.546-2.978.7.7,0,0,0-.415-.115,14.64,14.64,0,0,1-5.1-.984,8.119,8.119,0,0,1-4.8-5.177A13.578,13.578,0,0,1,0,14.972a.6.6,0,0,1,.687-.693,19.7,19.7,0,0,1,5.49.627A6.891,6.891,0,0,1,11.108,19.7a14.411,14.411,0,0,1,.647,4.354,1.162,1.162,0,0,0,.451,1c.527.413,1.037.847,1.554,1.272l-.112.174V26.14c0-2.285-.026-4.57.012-6.855a4.469,4.469,0,0,0-.832-2.7c-.346-.5-.739-.966-1.1-1.454a.585.585,0,0,0-.5-.243,8.4,8.4,0,0,1-3.207-.661,4.8,4.8,0,0,1-2.66-3.215,14.053,14.053,0,0,1-.4-3.476.6.6,0,0,1,.59-.7,8.129,8.129,0,0,1,4.371.911,4.44,4.44,0,0,1,2.094,2.953,25.828,25.828,0,0,1,.373,2.878,1.03,1.03,0,0,0,.263.657c.334.357.631.748.98,1.169.01-.148.023-.246.023-.344,0-1.2-.016-2.391.007-3.586.014-.747.075-1.495.139-2.24a1.359,1.359,0,0,0-.164-.831,5.2,5.2,0,0,1-.686-3.064,4.694,4.694,0,0,1,1.483-3.016A9.012,9.012,0,0,1,19.018.148c.217-.047.435-.088.653-.128a.626.626,0,0,1,.812.475,6.321,6.321,0,0,1-2.228,7.295,7.4,7.4,0,0,1-2.911,1.332c-.232.05-.319.15-.333.362-.034.49-.1.98-.1,1.47-.012,2.261-.008,4.523-.008,6.785,0,.076.008.151.015.288.413-.514.79-.97,1.148-1.441a.647.647,0,0,0,.053-.336,17.675,17.675,0,0,1,.48-3.927,4.952,4.952,0,0,1,4.545-4c1.176-.173,2.378-.172,3.57-.232.479-.024.734.194.727.651a15.2,15.2,0,0,1-.718,5.151A4.72,4.72,0,0,1,21.4,16.94a14.522,14.522,0,0,1-4,.432.645.645,0,0,0-.613.307c-.539.832-1.126,1.636-1.619,2.494a2.494,2.494,0,0,0-.253,1.179c-.022,2.531-.011,5.062-.01,7.593,0,.112.009.224.018.414.256-.338.452-.623.675-.886.5-.589,1.006-1.174,1.525-1.746a.927.927,0,0,0,.263-.652,11.124,11.124,0,0,1,.825-4.275,5.747,5.747,0,0,1,3.948-3.3A15.993,15.993,0,0,1,26.609,18a.6.6,0,0,1,.679.6,12.085,12.085,0,0,1-.551,4.362,5.894,5.894,0,0,1-4.319,3.884,15.322,15.322,0,0,1-3.788.449.81.81,0,0,0-.635.293,18.782,18.782,0,0,0-2.972,4.072.786.786,0,0,0-.113.322c-.009.9-.005,1.8-.005,2.755h9.6a2.316,2.316,0,0,1,.385.018.572.572,0,0,1,.52.45.614.614,0,0,1-.234.682L25.04,36Zm6.508-11.83c-.007-.04,0-.067-.015-.083a10.294,10.294,0,0,0-3.863-3.6,1,1,0,0,1-.414-.353.549.549,0,0,1,.108-.706.639.639,0,0,1,.782-.077,10.657,10.657,0,0,1,3.573,3c.077.093.156.184.234.276l.119-.05c-.188-.827-.325-1.67-.575-2.478A5.67,5.67,0,0,0,6.2,16.24a13.288,13.288,0,0,0-3.226-.626c-.556-.05-1.115-.06-1.778-.093.127.879.2,1.7.371,2.508a6.951,6.951,0,0,0,3.245,4.754,11.152,11.152,0,0,0,5.154,1.386m16.076-4.912a14.118,14.118,0,0,0-3.782.479,4.382,4.382,0,0,0-2.949,2.643c-.256.65-.4,1.342-.6,2.015l.161.088a1.736,1.736,0,0,1,.149-.232,7.279,7.279,0,0,1,2.34-1.761c.437-.208.764-.151.946.183.19.35.055.7-.383.906a6.357,6.357,0,0,0-2.38,2.03c-.092.122-.179.247-.309.425a12.044,12.044,0,0,0,3.3-.513,4.418,4.418,0,0,0,2.873-2.636,10.083,10.083,0,0,0,.631-3.627M24.181,9.343a12.16,12.16,0,0,0-3.976.484,3.2,3.2,0,0,0-2,1.758,13.366,13.366,0,0,0-.618,2.07,12.086,12.086,0,0,0-.171,1.367c.119-.1.155-.133.188-.164.786-.737,1.564-1.481,2.359-2.207a.638.638,0,0,1,.964-.025c.265.313.211.654-.148.974-.419.374-.847.74-1.251,1.131-.44.426-.858.876-1.285,1.315l.054.13c.907-.142,1.828-.226,2.719-.438a3.578,3.578,0,0,0,2.666-2.625,14.272,14.272,0,0,0,.493-3.769m-9.808-2.4c.316-.556.608-1.1.929-1.626a.625.625,0,0,1,1.093.608c-.11.232-.258.445-.376.673-.2.386-.389.777-.607,1.216a5.167,5.167,0,0,0,3.959-6.476,8.55,8.55,0,0,0-3.582,1.4,3.709,3.709,0,0,0-1.415,4.2M11.046,12.5C10.755,9.4,9.375,8.155,6.139,8.127a24.69,24.69,0,0,0,.432,2.662,3.735,3.735,0,0,0,3.681,2.733c-.448-.5-.885-.984-1.327-1.466a.6.6,0,0,1-.1-.8c.243-.388.665-.4,1.037-.021s.749.8,1.185,1.267" transform="translate(0 0)" fill="#4c8da7"/>
  </g>
</svg>
